<svg width="375" height="422" viewBox="0 0 375 422" fill="none" xmlns="http://www.w3.org/2000/svg">
<circle cx="7" cy="369" r="51" fill="#361CD8"/>
<circle cx="7" cy="369" r="51" fill="#D81CAE"/>
<circle cx="7" cy="369" r="51" stroke="black" stroke-width="4"/>
<circle cx="365" cy="85" r="51" fill="#FBCF35" stroke="black" stroke-width="4"/>
<circle cx="299" cy="359" r="51" fill="#8BAE00" stroke="black" stroke-width="4"/>
<circle cx="60" cy="96" r="51" fill="#361CD8"/>
<circle cx="60" cy="96" r="51" fill="#361CD8"/>
<circle cx="60" cy="96" r="51" stroke="black" stroke-width="4"/>
<circle cx="188" cy="85" r="83" fill="#D20000" stroke="black" stroke-width="4"/>
<path d="M146.851 75.1758C146.777 74.165 146.704 73.147 146.631 72.1216C146.572 71.0962 146.499 70.0635 146.411 69.0234C145.767 68.9795 145.144 68.9355 144.543 68.8916C143.943 68.8477 143.335 68.8257 142.72 68.8257H142.434C142.361 69.8804 142.295 70.9204 142.236 71.9458C142.178 72.9712 142.126 73.9893 142.083 75L136.589 74.9121C137.498 69.6826 138.318 64.4678 139.05 59.2676C139.783 54.0674 140.405 48.8232 140.918 43.5352L147.532 43.645C148.088 48.8745 148.755 54.0747 149.531 59.2456C150.322 64.4019 151.245 69.5947 152.3 74.8242L146.851 75.1758ZM144.28 49.0723C143.987 51.7676 143.708 54.4556 143.445 57.1362C143.181 59.8169 142.939 62.5195 142.72 65.2441C143.027 65.2734 143.342 65.2881 143.665 65.2881C143.987 65.2881 144.316 65.2881 144.653 65.2881H146.082C145.833 62.5635 145.554 59.8608 145.247 57.1802C144.939 54.4995 144.617 51.7969 144.28 49.0723ZM167.812 43.9087C166.758 49.1382 165.835 54.3384 165.044 59.5093C164.268 64.6655 163.601 69.8584 163.044 75.0879L156.431 75.1758C155.918 69.9023 155.295 64.6655 154.563 59.4653C153.831 54.2651 153.01 49.0503 152.102 43.8208L157.595 43.7329C157.83 48.1274 158.137 52.4707 158.518 56.7627C158.899 61.0547 159.324 65.3613 159.792 69.6826C160.364 65.3174 160.869 60.9668 161.309 56.6309C161.748 52.2803 162.1 47.915 162.363 43.5352L167.812 43.9087ZM177.832 75.1758C177.759 74.165 177.686 73.147 177.612 72.1216C177.554 71.0962 177.48 70.0635 177.393 69.0234C176.748 68.9795 176.125 68.9355 175.525 68.8916C174.924 68.8477 174.316 68.8257 173.701 68.8257H173.416C173.342 69.8804 173.276 70.9204 173.218 71.9458C173.159 72.9712 173.108 73.9893 173.064 75L167.571 74.9121C168.479 69.6826 169.299 64.4678 170.032 59.2676C170.764 54.0674 171.387 48.8232 171.899 43.5352L178.513 43.645C179.07 48.8745 179.736 54.0747 180.513 59.2456C181.304 64.4019 182.227 69.5947 183.281 74.8242L177.832 75.1758ZM175.261 49.0723C174.968 51.7676 174.69 54.4556 174.426 57.1362C174.163 59.8169 173.921 62.5195 173.701 65.2441C174.009 65.2734 174.324 65.2881 174.646 65.2881C174.968 65.2881 175.298 65.2881 175.635 65.2881H177.063C176.814 62.5635 176.536 59.8608 176.228 57.1802C175.92 54.4995 175.598 51.7969 175.261 49.0723ZM196.223 75.0439C195.403 75.0146 194.604 74.9927 193.828 74.978C193.066 74.9634 192.305 74.9561 191.543 74.9561C190.4 74.9561 189.272 74.9707 188.159 75C187.046 75.0439 185.896 75.1025 184.709 75.1758C184.841 72.4512 184.944 69.7559 185.017 67.0898C185.105 64.4092 185.149 61.7065 185.149 58.9819C185.149 56.3745 185.112 53.7891 185.039 51.2256C184.98 48.6475 184.871 46.0547 184.709 43.4473C184.856 43.4619 185.024 43.4692 185.215 43.4692C185.376 43.4839 185.574 43.4912 185.808 43.4912C186.042 43.4912 186.306 43.4912 186.599 43.4912C187.068 43.4912 187.573 43.4839 188.115 43.4692C188.672 43.4399 189.229 43.4033 189.785 43.3594C189.595 45.4688 189.456 47.688 189.368 50.0171C189.294 52.3462 189.243 54.7046 189.214 57.0923C189.199 59.4653 189.185 61.8384 189.17 64.2114C189.17 66.5698 189.148 68.8477 189.104 71.0449C190.305 71.0156 191.47 70.957 192.598 70.8691C193.74 70.7812 194.949 70.6421 196.223 70.4517V75.0439ZM206.704 74.6924C206.118 74.6631 205.532 74.6411 204.946 74.6265C204.36 74.6118 203.774 74.6045 203.188 74.6045C202.222 74.6045 201.255 74.6265 200.288 74.6704C199.321 74.6997 198.354 74.751 197.388 74.8242L197.432 70.1001C197.769 70.144 198.105 70.1807 198.442 70.21C198.779 70.2246 199.116 70.2466 199.453 70.2759C199.541 68.0054 199.622 65.7495 199.695 63.5083C199.783 61.2524 199.827 58.9966 199.827 56.7407C199.827 55.2319 199.805 53.7451 199.761 52.2803C199.717 50.8008 199.673 49.314 199.629 47.8198C199.248 47.8198 198.86 47.8271 198.464 47.8418C198.069 47.8564 197.666 47.8784 197.256 47.9077L197.3 43.3154C198.428 43.3887 199.556 43.4473 200.684 43.4912C201.812 43.5205 202.947 43.5352 204.089 43.5352C204.5 43.5352 204.91 43.5352 205.32 43.5352C205.73 43.5352 206.147 43.5205 206.572 43.4912L206.44 47.8638C206.104 47.8638 205.767 47.8564 205.43 47.8418C205.107 47.8271 204.778 47.8198 204.441 47.8198C204.236 50.4565 204.089 53.0786 204.001 55.686C203.914 58.2788 203.87 60.8936 203.87 63.5303C203.87 65.8301 203.914 68.1226 204.001 70.4077C204.47 70.4077 204.946 70.4004 205.43 70.3857C205.928 70.3711 206.426 70.3491 206.924 70.3198L206.704 74.6924ZM217.91 75.1758C217.837 74.165 217.764 73.147 217.69 72.1216C217.632 71.0962 217.559 70.0635 217.471 69.0234C216.826 68.9795 216.204 68.9355 215.603 68.8916C215.002 68.8477 214.395 68.8257 213.779 68.8257H213.494C213.42 69.8804 213.354 70.9204 213.296 71.9458C213.237 72.9712 213.186 73.9893 213.142 75L207.649 74.9121C208.557 69.6826 209.377 64.4678 210.11 59.2676C210.842 54.0674 211.465 48.8232 211.978 43.5352L218.591 43.645C219.148 48.8745 219.814 54.0747 220.591 59.2456C221.382 64.4019 222.305 69.5947 223.359 74.8242L217.91 75.1758ZM215.339 49.0723C215.046 51.7676 214.768 54.4556 214.504 57.1362C214.241 59.8169 213.999 62.5195 213.779 65.2441C214.087 65.2734 214.402 65.2881 214.724 65.2881C215.046 65.2881 215.376 65.2881 215.713 65.2881H217.141C216.892 62.5635 216.614 59.8608 216.306 57.1802C215.999 54.4995 215.676 51.7969 215.339 49.0723ZM237.686 52.8516C237.686 53.833 237.59 54.8218 237.4 55.8179C237.224 56.7993 236.931 57.7515 236.521 58.6743C236.111 59.5825 235.583 60.4395 234.939 61.2451C234.294 62.0361 233.503 62.7393 232.566 63.3545C233.386 65.4492 234.287 67.4634 235.269 69.397C236.265 71.3159 237.371 73.1689 238.586 74.9561L233.093 75.2637L229.358 64.6509C229.417 66.438 229.49 68.2104 229.578 69.9683C229.666 71.7261 229.775 73.4619 229.907 75.1758H224.546C224.78 71.8506 224.949 68.5254 225.051 65.2002C225.168 61.875 225.227 58.5278 225.227 55.1587C225.227 53.2104 225.212 51.2695 225.183 49.3359C225.154 47.3877 225.095 45.4248 225.007 43.4473C225.784 43.2129 226.567 43.0591 227.358 42.9858C228.164 42.9126 228.845 42.876 229.402 42.876C229.797 42.876 230.273 42.9199 230.83 43.0078C231.401 43.0811 231.995 43.2422 232.61 43.4912C233.225 43.7402 233.833 44.0918 234.434 44.5459C235.049 45 235.591 45.6006 236.06 46.3477C236.543 47.0801 236.931 47.981 237.224 49.0503C237.532 50.105 237.686 51.3721 237.686 52.8516ZM229.314 61.0913C229.827 60.9448 230.273 60.7324 230.654 60.4541C231.05 60.1611 231.394 59.8315 231.687 59.4653C231.98 59.0991 232.222 58.7109 232.412 58.3008C232.617 57.8906 232.786 57.4805 232.917 57.0703C233.21 56.1182 233.379 55.0781 233.423 53.9502C233.423 53.9209 233.416 53.7451 233.401 53.4229C233.401 53.0859 233.364 52.6685 233.291 52.1704C233.218 51.6724 233.108 51.1304 232.961 50.5444C232.83 49.9585 232.632 49.3945 232.368 48.8525C232.104 48.2959 231.768 47.8052 231.357 47.3804C230.947 46.9556 230.449 46.6553 229.863 46.4795C229.688 48.7793 229.548 51.0718 229.446 53.3569C229.358 55.6274 229.314 57.9199 229.314 60.2344V61.0913Z" fill="white"/>
<path d="M134.738 117.176C134.665 116.165 134.592 115.147 134.519 114.122C134.46 113.096 134.387 112.063 134.299 111.023C133.654 110.979 133.032 110.936 132.431 110.892C131.831 110.848 131.223 110.826 130.607 110.826H130.322C130.249 111.88 130.183 112.92 130.124 113.946C130.065 114.971 130.014 115.989 129.97 117L124.477 116.912C125.385 111.683 126.206 106.468 126.938 101.268C127.67 96.0674 128.293 90.8232 128.806 85.5352L135.419 85.645C135.976 90.8745 136.643 96.0747 137.419 101.246C138.21 106.402 139.133 111.595 140.188 116.824L134.738 117.176ZM132.167 91.0723C131.875 93.7676 131.596 96.4556 131.333 99.1362C131.069 101.817 130.827 104.52 130.607 107.244C130.915 107.273 131.23 107.288 131.552 107.288C131.875 107.288 132.204 107.288 132.541 107.288H133.969C133.72 104.563 133.442 101.861 133.134 99.1802C132.827 96.4995 132.504 93.7969 132.167 91.0723ZM152.009 90.0396C151.54 90.0103 150.998 89.9883 150.383 89.9736C149.782 89.959 149.138 89.9517 148.449 89.9517C148.347 91.314 148.259 92.7275 148.186 94.1924C148.127 95.6426 148.076 97.1221 148.032 98.6309C147.988 100.125 147.958 101.634 147.944 103.157C147.929 104.666 147.922 106.16 147.922 107.64C147.922 109.324 147.929 110.958 147.944 112.54C147.973 114.107 148.024 115.623 148.098 117.088H143.417C143.549 114.598 143.652 111.946 143.725 109.134C143.798 106.321 143.835 103.487 143.835 100.63C143.835 98.77 143.813 96.9536 143.769 95.1812C143.725 93.4087 143.681 91.6802 143.637 89.9956C142.934 89.9956 142.268 90.0029 141.638 90.0176C141.008 90.0322 140.444 90.0542 139.946 90.0835L139.99 85.4912C140.517 85.5352 141.11 85.5718 141.77 85.6011C142.429 85.6157 143.117 85.6304 143.835 85.645C144.567 85.6597 145.314 85.6743 146.076 85.689C146.838 85.689 147.585 85.689 148.317 85.689C149.05 85.689 149.738 85.689 150.383 85.689C151.042 85.689 151.628 85.6743 152.141 85.645L152.009 90.0396ZM162.6 116.692C162.014 116.663 161.428 116.641 160.842 116.626C160.256 116.612 159.67 116.604 159.084 116.604C158.117 116.604 157.15 116.626 156.184 116.67C155.217 116.7 154.25 116.751 153.283 116.824L153.327 112.1C153.664 112.144 154.001 112.181 154.338 112.21C154.675 112.225 155.012 112.247 155.349 112.276C155.437 110.005 155.517 107.75 155.59 105.508C155.678 103.252 155.722 100.997 155.722 98.7407C155.722 97.2319 155.7 95.7451 155.656 94.2803C155.612 92.8008 155.568 91.314 155.524 89.8198C155.144 89.8198 154.755 89.8271 154.36 89.8418C153.964 89.8564 153.562 89.8784 153.151 89.9077L153.195 85.3154C154.323 85.3887 155.451 85.4473 156.579 85.4912C157.707 85.5205 158.842 85.5352 159.985 85.5352C160.395 85.5352 160.805 85.5352 161.215 85.5352C161.625 85.5352 162.043 85.5205 162.468 85.4912L162.336 89.8638C161.999 89.8638 161.662 89.8564 161.325 89.8418C161.003 89.8271 160.673 89.8198 160.336 89.8198C160.131 92.4565 159.985 95.0786 159.897 97.686C159.809 100.279 159.765 102.894 159.765 105.53C159.765 107.83 159.809 110.123 159.897 112.408C160.366 112.408 160.842 112.4 161.325 112.386C161.823 112.371 162.321 112.349 162.819 112.32L162.6 116.692ZM179.255 85.9087C178.2 91.1382 177.277 96.3384 176.486 101.509C175.71 106.666 175.043 111.858 174.487 117.088L167.873 117.176C167.36 111.902 166.738 106.666 166.005 101.465C165.273 96.2651 164.453 91.0503 163.544 85.8208L169.038 85.7329C169.272 90.1274 169.58 94.4707 169.96 98.7627C170.341 103.055 170.766 107.361 171.235 111.683C171.806 107.317 172.312 102.967 172.751 98.6309C173.19 94.2803 173.542 89.915 173.806 85.5352L179.255 85.9087ZM189.362 116.692C188.776 116.663 188.19 116.641 187.604 116.626C187.019 116.612 186.433 116.604 185.847 116.604C184.88 116.604 183.913 116.626 182.946 116.67C181.979 116.7 181.013 116.751 180.046 116.824L180.09 112.1C180.427 112.144 180.764 112.181 181.101 112.21C181.438 112.225 181.774 112.247 182.111 112.276C182.199 110.005 182.28 107.75 182.353 105.508C182.441 103.252 182.485 100.997 182.485 98.7407C182.485 97.2319 182.463 95.7451 182.419 94.2803C182.375 92.8008 182.331 91.314 182.287 89.8198C181.906 89.8198 181.518 89.8271 181.123 89.8418C180.727 89.8564 180.324 89.8784 179.914 89.9077L179.958 85.3154C181.086 85.3887 182.214 85.4473 183.342 85.4912C184.47 85.5205 185.605 85.5352 186.748 85.5352C187.158 85.5352 187.568 85.5352 187.978 85.5352C188.388 85.5352 188.806 85.5205 189.23 85.4912L189.099 89.8638C188.762 89.8638 188.425 89.8564 188.088 89.8418C187.766 89.8271 187.436 89.8198 187.099 89.8198C186.894 92.4565 186.748 95.0786 186.66 97.686C186.572 100.279 186.528 102.894 186.528 105.53C186.528 107.83 186.572 110.123 186.66 112.408C187.128 112.408 187.604 112.4 188.088 112.386C188.586 112.371 189.084 112.349 189.582 112.32L189.362 116.692ZM205.424 102.059C205.424 104.329 205.256 106.292 204.919 107.947C204.597 109.588 204.165 110.987 203.623 112.144C203.081 113.301 202.465 114.239 201.777 114.957C201.103 115.674 200.415 116.231 199.711 116.626C199.008 117.022 198.327 117.286 197.668 117.417C197.009 117.564 196.43 117.637 195.932 117.637L191.428 117.264C191.618 114.275 191.765 111.272 191.867 108.255C191.97 105.223 192.021 102.168 192.021 99.0923C192.021 96.7632 191.992 94.4561 191.933 92.1709C191.875 89.8857 191.787 87.6006 191.669 85.3154C192.021 85.2861 192.365 85.2642 192.702 85.2495C193.039 85.2349 193.369 85.2275 193.691 85.2275C196.123 85.2275 198.1 85.645 199.624 86.48C201.147 87.3003 202.333 88.4575 203.183 89.9517C204.047 91.4312 204.633 93.2036 204.941 95.269C205.263 97.3198 205.424 99.583 205.424 102.059ZM200.942 101.465C200.942 100.748 200.927 99.9858 200.898 99.1802C200.869 98.3599 200.803 97.5469 200.7 96.7412C200.612 95.9355 200.473 95.1519 200.283 94.3901C200.092 93.6284 199.843 92.9326 199.536 92.3027C199.228 91.6582 198.847 91.1089 198.393 90.6548C197.954 90.2007 197.419 89.8784 196.789 89.688C196.701 91.2993 196.621 92.874 196.547 94.4121C196.489 95.9355 196.438 97.4443 196.394 98.9385C196.35 100.433 196.313 101.919 196.284 103.399C196.269 104.864 196.262 106.336 196.262 107.815C196.262 108.782 196.262 109.764 196.262 110.76C196.262 111.741 196.276 112.745 196.306 113.77C196.979 113.697 197.565 113.44 198.063 113.001C198.562 112.562 198.979 112.012 199.316 111.353C199.667 110.679 199.946 109.925 200.151 109.09C200.371 108.24 200.539 107.376 200.656 106.497C200.773 105.604 200.847 104.725 200.876 103.86C200.92 102.996 200.942 102.198 200.942 101.465ZM216.564 117.176C216.491 116.165 216.418 115.147 216.345 114.122C216.286 113.096 216.213 112.063 216.125 111.023C215.48 110.979 214.858 110.936 214.257 110.892C213.657 110.848 213.049 110.826 212.434 110.826H212.148C212.075 111.88 212.009 112.92 211.95 113.946C211.892 114.971 211.84 115.989 211.796 117L206.303 116.912C207.211 111.683 208.032 106.468 208.764 101.268C209.497 96.0674 210.119 90.8232 210.632 85.5352L217.246 85.645C217.802 90.8745 218.469 96.0747 219.245 101.246C220.036 106.402 220.959 111.595 222.014 116.824L216.564 117.176ZM213.994 91.0723C213.701 93.7676 213.422 96.4556 213.159 99.1362C212.895 101.817 212.653 104.52 212.434 107.244C212.741 107.273 213.056 107.288 213.378 107.288C213.701 107.288 214.03 107.288 214.367 107.288H215.795C215.546 104.563 215.268 101.861 214.96 99.1802C214.653 96.4995 214.331 93.7969 213.994 91.0723ZM237.285 102.059C237.285 104.329 237.116 106.292 236.779 107.947C236.457 109.588 236.025 110.987 235.483 112.144C234.941 113.301 234.326 114.239 233.637 114.957C232.963 115.674 232.275 116.231 231.572 116.626C230.869 117.022 230.188 117.286 229.528 117.417C228.869 117.564 228.291 117.637 227.792 117.637L223.288 117.264C223.479 114.275 223.625 111.272 223.728 108.255C223.83 105.223 223.881 102.168 223.881 99.0923C223.881 96.7632 223.852 94.4561 223.793 92.1709C223.735 89.8857 223.647 87.6006 223.53 85.3154C223.881 85.2861 224.226 85.2642 224.562 85.2495C224.899 85.2349 225.229 85.2275 225.551 85.2275C227.983 85.2275 229.96 85.645 231.484 86.48C233.007 87.3003 234.194 88.4575 235.043 89.9517C235.908 91.4312 236.494 93.2036 236.801 95.269C237.124 97.3198 237.285 99.583 237.285 102.059ZM232.802 101.465C232.802 100.748 232.788 99.9858 232.758 99.1802C232.729 98.3599 232.663 97.5469 232.561 96.7412C232.473 95.9355 232.333 95.1519 232.143 94.3901C231.953 93.6284 231.704 92.9326 231.396 92.3027C231.088 91.6582 230.708 91.1089 230.253 90.6548C229.814 90.2007 229.279 89.8784 228.649 89.688C228.562 91.2993 228.481 92.874 228.408 94.4121C228.349 95.9355 228.298 97.4443 228.254 98.9385C228.21 100.433 228.173 101.919 228.144 103.399C228.129 104.864 228.122 106.336 228.122 107.815C228.122 108.782 228.122 109.764 228.122 110.76C228.122 111.741 228.137 112.745 228.166 113.77C228.84 113.697 229.426 113.44 229.924 113.001C230.422 112.562 230.839 112.012 231.176 111.353C231.528 110.679 231.806 109.925 232.011 109.09C232.231 108.24 232.399 107.376 232.517 106.497C232.634 105.604 232.707 104.725 232.736 103.86C232.78 102.996 232.802 102.198 232.802 101.465ZM248.601 105.245C248.146 105.215 247.685 105.193 247.216 105.179C246.748 105.164 246.279 105.157 245.81 105.157C245.546 105.157 245.268 105.164 244.975 105.179C244.697 105.193 244.418 105.201 244.14 105.201L244.052 113.045C245.253 113.016 246.418 112.957 247.546 112.869C248.688 112.781 249.897 112.642 251.171 112.452V117.044C250.351 117.015 249.553 116.993 248.776 116.978C248.015 116.963 247.253 116.956 246.491 116.956C245.349 116.956 244.221 116.971 243.107 117C241.994 117.044 240.844 117.103 239.658 117.176C239.79 114.451 239.892 111.756 239.965 109.09C240.053 106.409 240.097 103.707 240.097 100.982C240.097 98.3745 240.061 95.7891 239.987 93.2256C239.929 90.6475 239.819 88.0547 239.658 85.4473C241.386 85.5791 243.034 85.645 244.602 85.645C245.598 85.645 246.586 85.623 247.568 85.5791C248.564 85.5205 249.626 85.4473 250.754 85.3594V90.4131C249.846 90.252 248.945 90.1274 248.051 90.0396C247.172 89.9517 246.293 89.9077 245.415 89.9077H244.558C244.411 91.7388 244.309 93.5625 244.25 95.3789C244.206 97.1953 244.169 99.019 244.14 100.85C244.521 100.879 244.902 100.894 245.283 100.894C245.678 100.894 246.081 100.894 246.491 100.894C246.828 100.894 247.172 100.894 247.524 100.894C247.875 100.894 248.234 100.879 248.601 100.85V105.245Z" fill="white"/>
</svg>
