<svg width="375" height="446" viewBox="0 0 375 446" fill="none" xmlns="http://www.w3.org/2000/svg">
<circle cx="365" cy="91" r="51" fill="#FBCF35" stroke="black" stroke-width="4"/>
<circle cx="299" cy="383" r="51" fill="#8BAE00" stroke="black" stroke-width="4"/>
<circle cx="60" cy="102" r="51" fill="#361CD8"/>
<circle cx="60" cy="102" r="51" fill="#361CD8"/>
<circle cx="60" cy="102" r="51" stroke="black" stroke-width="4"/>
<circle cx="7" cy="393" r="51" fill="#361CD8"/>
<circle cx="7" cy="393" r="51" fill="#D81CAE"/>
<circle cx="7" cy="393" r="51" stroke="black" stroke-width="4"/>
<circle cx="186" cy="85" r="83" fill="#D20000" stroke="black" stroke-width="4"/>
<path d="M132.057 100.451C131.486 100.714 130.922 100.912 130.365 101.044C129.809 101.19 129.311 101.3 128.871 101.374C128.358 101.447 127.86 101.491 127.377 101.505C126.85 101.505 126.278 101.41 125.663 101.22C125.062 101.029 124.455 100.707 123.839 100.253C123.224 99.7842 122.631 99.1543 122.06 98.3633C121.488 97.5576 120.983 96.5542 120.543 95.353C120.104 94.1372 119.752 92.687 119.489 91.0024C119.225 89.3179 119.093 87.355 119.093 85.1138C119.093 82.8726 119.247 80.917 119.555 79.2471C119.877 77.5771 120.287 76.1489 120.785 74.9624C121.298 73.7612 121.869 72.7798 122.499 72.0181C123.144 71.2417 123.795 70.6338 124.455 70.1943C125.114 69.7402 125.751 69.4326 126.366 69.2715C126.996 69.0957 127.538 69.0078 127.992 69.0078C128.417 69.0225 128.834 69.0664 129.245 69.1396C129.596 69.2129 129.962 69.3228 130.343 69.4692C130.739 69.6157 131.083 69.8208 131.376 70.0845L130.937 74.501C130.526 74.2959 130.138 74.1494 129.772 74.0615C129.42 73.959 129.083 73.9077 128.761 73.9077C128.146 73.9077 127.597 74.0762 127.113 74.4131C126.645 74.7354 126.234 75.1675 125.883 75.7095C125.546 76.2515 125.253 76.8667 125.004 77.5552C124.77 78.2437 124.579 78.9468 124.433 79.6646C124.066 81.3491 123.861 83.2681 123.817 85.4214C123.861 87.5601 124.074 89.4644 124.455 91.1343C124.616 91.8521 124.813 92.5552 125.048 93.2437C125.297 93.9175 125.597 94.5254 125.949 95.0674C126.3 95.5947 126.71 96.0195 127.179 96.3418C127.663 96.6641 128.219 96.8252 128.849 96.8252C129.538 96.8252 130.336 96.5835 131.244 96.1001L132.057 100.451ZM148.273 85.6191C148.273 88.5635 148.068 91.061 147.658 93.1118C147.262 95.1626 146.72 96.8325 146.032 98.1216C145.343 99.396 144.53 100.326 143.593 100.912C142.655 101.483 141.652 101.769 140.583 101.769C139.513 101.769 138.51 101.498 137.572 100.956C136.635 100.399 135.814 99.4912 135.111 98.2314C134.408 96.9717 133.852 95.3091 133.441 93.2437C133.046 91.1782 132.848 88.6367 132.848 85.6191C132.848 82.5869 133.046 80.0161 133.441 77.9067C133.852 75.7827 134.408 74.0615 135.111 72.7432C135.814 71.4102 136.635 70.4507 137.572 69.8647C138.51 69.2642 139.513 68.9639 140.583 68.9639C141.652 68.9639 142.655 69.2568 143.593 69.8428C144.53 70.4141 145.343 71.3589 146.032 72.6772C146.72 73.9956 147.262 75.7168 147.658 77.8408C148.068 79.9502 148.273 82.543 148.273 85.6191ZM143.373 85.6191C143.373 83.3193 143.3 81.3784 143.153 79.7964C143.007 78.2144 142.802 76.9326 142.538 75.9512C142.289 74.9551 141.996 74.2373 141.659 73.7979C141.322 73.3584 140.963 73.1387 140.583 73.1387C140.187 73.1387 139.813 73.3657 139.462 73.8198C139.125 74.2593 138.825 74.9771 138.561 75.9731C138.312 76.9546 138.114 78.2437 137.968 79.8403C137.821 81.4224 137.748 83.3486 137.748 85.6191C137.748 87.875 137.821 89.772 137.968 91.3101C138.114 92.8335 138.312 94.064 138.561 95.0015C138.825 95.9243 139.125 96.5835 139.462 96.979C139.813 97.3745 140.187 97.5723 140.583 97.5723C140.963 97.5723 141.322 97.3672 141.659 96.957C141.996 96.5322 142.289 95.8511 142.538 94.9136C142.802 93.9614 143.007 92.7236 143.153 91.2002C143.3 89.6768 143.373 87.8164 143.373 85.6191ZM166.554 69.3154C166.364 72.2598 166.217 75.1821 166.115 78.0825C166.012 80.9683 165.961 83.8687 165.961 86.7837C165.961 89.0542 165.99 91.2954 166.049 93.5073C166.122 95.7192 166.239 97.9458 166.4 100.187L161.962 100.055C161.376 98.1509 160.797 96.2612 160.226 94.3862C159.669 92.4966 159.113 90.6216 158.556 88.7612C158 86.9009 157.428 85.0479 156.842 83.2021C156.271 81.3564 155.678 79.5181 155.062 77.687C155.106 81.5103 155.172 85.3262 155.26 89.1348C155.363 92.9287 155.539 96.7153 155.788 100.495L150.712 100.451C150.888 95.7778 150.976 91.083 150.976 86.3662C150.976 83.4658 150.946 80.5947 150.888 77.7529C150.829 74.9111 150.741 72.0547 150.624 69.1836L156.776 69.3154C157.523 72.5381 158.322 75.812 159.171 79.1372C160.021 82.4624 160.922 85.7437 161.874 88.981C161.771 85.6704 161.618 82.3599 161.413 79.0493C161.222 75.7241 161.01 72.4648 160.775 69.2715L166.554 69.3154ZM180.441 93.2217C180.441 94.3789 180.316 95.397 180.067 96.2759C179.833 97.1401 179.518 97.8872 179.123 98.5171C178.742 99.1323 178.31 99.645 177.826 100.055C177.343 100.451 176.845 100.766 176.332 101C175.834 101.234 175.351 101.396 174.882 101.483C174.428 101.586 174.032 101.637 173.695 101.637C173.52 101.637 173.278 101.623 172.97 101.593C172.663 101.579 172.311 101.535 171.916 101.461C171.52 101.388 171.081 101.278 170.597 101.132C170.128 101 169.63 100.81 169.103 100.561L169.345 95.0234C170.209 95.7559 170.978 96.2466 171.652 96.4956C172.34 96.7446 172.919 96.8691 173.388 96.8691C174.296 96.8691 174.977 96.5396 175.431 95.8804C175.9 95.2212 176.134 94.3643 176.134 93.3096C176.134 92.6064 175.958 91.8228 175.607 90.9585C175.27 90.0796 174.662 89.1348 173.783 88.124C173.183 87.4209 172.56 86.6885 171.916 85.9268C171.271 85.165 170.685 84.3521 170.158 83.4878C169.63 82.6235 169.198 81.6934 168.861 80.6973C168.524 79.7012 168.356 78.6245 168.356 77.4673C168.356 76.0024 168.554 74.7354 168.949 73.666C169.359 72.5967 169.901 71.7104 170.575 71.0073C171.249 70.3042 172.018 69.7842 172.882 69.4473C173.761 69.0957 174.677 68.9199 175.629 68.9199C176.464 68.9199 177.313 69.0371 178.178 69.2715C179.057 69.4912 179.936 69.8354 180.814 70.3042L180.397 75.8413C180.016 75.3579 179.613 74.9771 179.188 74.6987C178.778 74.4058 178.375 74.186 177.98 74.0396C177.599 73.8931 177.24 73.7979 176.903 73.7539C176.581 73.71 176.31 73.688 176.09 73.688C175.666 73.688 175.27 73.7979 174.904 74.0176C174.552 74.2227 174.245 74.5083 173.981 74.8745C173.732 75.2261 173.534 75.6509 173.388 76.1489C173.241 76.6323 173.168 77.145 173.168 77.687C173.168 78.522 173.344 79.2764 173.695 79.9502C174.062 80.624 174.516 81.2905 175.058 81.9497C175.6 82.6089 176.178 83.29 176.793 83.9932C177.423 84.6816 178.009 85.4653 178.551 86.3442C179.093 87.2085 179.54 88.2046 179.892 89.3325C180.258 90.4458 180.441 91.7422 180.441 93.2217ZM195.382 69.1836C195.719 72.1719 195.954 75.1968 196.085 78.2583C196.217 81.3052 196.283 84.4912 196.283 87.8164C196.283 88.9443 196.232 90.0649 196.129 91.1782C196.042 92.2769 195.88 93.3315 195.646 94.3423C195.426 95.3384 195.126 96.2686 194.745 97.1328C194.379 97.9824 193.917 98.7222 193.361 99.3521C192.804 99.9673 192.145 100.458 191.383 100.824C190.622 101.176 189.75 101.352 188.769 101.352C187.89 101.352 187.121 101.19 186.461 100.868C185.802 100.531 185.238 100.077 184.77 99.5059C184.301 98.9199 183.905 98.2388 183.583 97.4624C183.275 96.6714 183.034 95.8218 182.858 94.9136C182.682 93.9907 182.558 93.0312 182.484 92.0352C182.411 91.0391 182.375 90.0356 182.375 89.0249C182.375 85.978 182.499 82.8945 182.748 79.7744C182.997 76.6396 183.29 73.395 183.627 70.0405L188.219 70.1284C187.956 73.2778 187.707 76.4565 187.472 79.6646C187.252 82.8726 187.143 86.1758 187.143 89.5742C187.143 90.5557 187.172 91.4858 187.23 92.3647C187.289 93.2437 187.392 94.02 187.538 94.6938C187.685 95.353 187.868 95.8804 188.087 96.2759C188.322 96.6714 188.607 96.8691 188.944 96.8691C189.34 96.8691 189.699 96.5615 190.021 95.9463C190.358 95.3164 190.636 94.4961 190.856 93.4854C191.09 92.46 191.273 91.2954 191.405 89.9917C191.537 88.688 191.603 87.3623 191.603 86.0146C191.603 84.7256 191.588 83.4292 191.559 82.1255C191.544 80.8218 191.515 79.5034 191.471 78.1704C191.427 76.8228 191.369 75.4531 191.295 74.0615C191.222 72.6553 191.127 71.1978 191.01 69.689L195.382 69.1836ZM210.653 101.044C209.833 101.015 209.035 100.993 208.258 100.978C207.497 100.963 206.735 100.956 205.973 100.956C204.831 100.956 203.703 100.971 202.589 101C201.476 101.044 200.326 101.103 199.14 101.176C199.271 98.4512 199.374 95.7559 199.447 93.0898C199.535 90.4092 199.579 87.7065 199.579 84.9819C199.579 82.3745 199.542 79.7891 199.469 77.2256C199.411 74.6475 199.301 72.0547 199.14 69.4473C199.286 69.4619 199.455 69.4692 199.645 69.4692C199.806 69.4839 200.004 69.4912 200.238 69.4912C200.473 69.4912 200.736 69.4912 201.029 69.4912C201.498 69.4912 202.003 69.4839 202.545 69.4692C203.102 69.4399 203.659 69.4033 204.215 69.3594C204.025 71.4688 203.886 73.688 203.798 76.0171C203.725 78.3462 203.673 80.7046 203.644 83.0923C203.629 85.4653 203.615 87.8384 203.6 90.2114C203.6 92.5698 203.578 94.8477 203.534 97.0449C204.735 97.0156 205.9 96.957 207.028 96.8691C208.17 96.7812 209.379 96.6421 210.653 96.4517V101.044ZM222.76 74.0396C222.292 74.0103 221.75 73.9883 221.134 73.9736C220.534 73.959 219.889 73.9517 219.201 73.9517C219.098 75.314 219.01 76.7275 218.937 78.1924C218.878 79.6426 218.827 81.1221 218.783 82.6309C218.739 84.125 218.71 85.6338 218.695 87.1572C218.681 88.666 218.673 90.1602 218.673 91.6396C218.673 93.3242 218.681 94.9575 218.695 96.5396C218.725 98.1069 218.776 99.623 218.849 101.088H214.169C214.301 98.5977 214.403 95.9463 214.477 93.1338C214.55 90.3213 214.586 87.4868 214.586 84.6304C214.586 82.77 214.564 80.9536 214.521 79.1812C214.477 77.4087 214.433 75.6802 214.389 73.9956C213.686 73.9956 213.019 74.0029 212.389 74.0176C211.759 74.0322 211.195 74.0542 210.697 74.0835L210.741 69.4912C211.269 69.5352 211.862 69.5718 212.521 69.6011C213.18 69.6157 213.869 69.6304 214.586 69.645C215.319 69.6597 216.066 69.6743 216.828 69.689C217.589 69.689 218.336 69.689 219.069 69.689C219.801 69.689 220.49 69.689 221.134 69.689C221.793 69.689 222.379 69.6743 222.892 69.645L222.76 74.0396ZM233.087 101.176C233.014 100.165 232.941 99.147 232.868 98.1216C232.809 97.0962 232.736 96.0635 232.648 95.0234C232.003 94.9795 231.381 94.9355 230.78 94.8916C230.18 94.8477 229.572 94.8257 228.957 94.8257H228.671C228.598 95.8804 228.532 96.9204 228.473 97.9458C228.415 98.9712 228.363 99.9893 228.319 101L222.826 100.912C223.734 95.6826 224.555 90.4678 225.287 85.2676C226.02 80.0674 226.642 74.8232 227.155 69.5352L233.769 69.645C234.325 74.8745 234.992 80.0747 235.768 85.2456C236.559 90.4019 237.482 95.5947 238.537 100.824L233.087 101.176ZM230.517 75.0723C230.224 77.7676 229.945 80.4556 229.682 83.1362C229.418 85.8169 229.176 88.5195 228.957 91.2441C229.264 91.2734 229.579 91.2881 229.901 91.2881C230.224 91.2881 230.553 91.2881 230.89 91.2881H232.318C232.069 88.5635 231.791 85.8608 231.483 83.1802C231.176 80.4995 230.854 77.7969 230.517 75.0723ZM252.863 78.8516C252.863 79.833 252.768 80.8218 252.577 81.8179C252.401 82.7993 252.108 83.7515 251.698 84.6743C251.288 85.5825 250.761 86.4395 250.116 87.2451C249.472 88.0361 248.681 88.7393 247.743 89.3545C248.563 91.4492 249.464 93.4634 250.446 95.397C251.442 97.3159 252.548 99.1689 253.764 100.956L248.271 101.264L244.535 90.6509C244.594 92.438 244.667 94.2104 244.755 95.9683C244.843 97.7261 244.953 99.4619 245.084 101.176H239.723C239.958 97.8506 240.126 94.5254 240.229 91.2002C240.346 87.875 240.404 84.5278 240.404 81.1587C240.404 79.2104 240.39 77.2695 240.36 75.3359C240.331 73.3877 240.272 71.4248 240.185 69.4473C240.961 69.2129 241.745 69.0591 242.536 68.9858C243.341 68.9126 244.022 68.876 244.579 68.876C244.975 68.876 245.451 68.9199 246.007 69.0078C246.579 69.0811 247.172 69.2422 247.787 69.4912C248.402 69.7402 249.01 70.0918 249.611 70.5459C250.226 71 250.768 71.6006 251.237 72.3477C251.72 73.0801 252.108 73.981 252.401 75.0503C252.709 76.105 252.863 77.3721 252.863 78.8516ZM244.491 87.0913C245.004 86.9448 245.451 86.7324 245.832 86.4541C246.227 86.1611 246.571 85.8315 246.864 85.4653C247.157 85.0991 247.399 84.7109 247.589 84.3008C247.794 83.8906 247.963 83.4805 248.095 83.0703C248.388 82.1182 248.556 81.0781 248.6 79.9502C248.6 79.9209 248.593 79.7451 248.578 79.4229C248.578 79.0859 248.542 78.6685 248.468 78.1704C248.395 77.6724 248.285 77.1304 248.139 76.5444C248.007 75.9585 247.809 75.3945 247.545 74.8525C247.282 74.2959 246.945 73.8052 246.535 73.3804C246.125 72.9556 245.626 72.6553 245.041 72.4795C244.865 74.7793 244.726 77.0718 244.623 79.3569C244.535 81.6274 244.491 83.9199 244.491 86.2344V87.0913Z" fill="white"/>
</svg>
