<svg width="375" height="424" viewBox="0 0 375 424" fill="none" xmlns="http://www.w3.org/2000/svg">
<circle cx="365" cy="87" r="51" fill="#FBCF35" stroke="black" stroke-width="4"/>
<circle cx="299" cy="361" r="51" fill="#8BAE00" stroke="black" stroke-width="4"/>
<circle cx="60" cy="98" r="51" fill="#361CD8"/>
<circle cx="60" cy="98" r="51" fill="#361CD8"/>
<circle cx="60" cy="98" r="51" stroke="black" stroke-width="4"/>
<circle cx="7" cy="371" r="51" fill="#361CD8"/>
<circle cx="7" cy="371" r="51" fill="#D81CAE"/>
<circle cx="7" cy="371" r="51" stroke="black" stroke-width="4"/>
<circle cx="188" cy="85" r="83" fill="#D20000" stroke="black" stroke-width="4"/>
<path d="M134.738 117.176C134.665 116.165 134.592 115.147 134.519 114.122C134.46 113.096 134.387 112.063 134.299 111.023C133.654 110.979 133.032 110.936 132.431 110.892C131.831 110.848 131.223 110.826 130.607 110.826H130.322C130.249 111.88 130.183 112.92 130.124 113.946C130.065 114.971 130.014 115.989 129.97 117L124.477 116.912C125.385 111.683 126.206 106.468 126.938 101.268C127.67 96.0674 128.293 90.8232 128.806 85.5352L135.419 85.645C135.976 90.8745 136.643 96.0747 137.419 101.246C138.21 106.402 139.133 111.595 140.188 116.824L134.738 117.176ZM132.167 91.0723C131.875 93.7676 131.596 96.4556 131.333 99.1362C131.069 101.817 130.827 104.52 130.607 107.244C130.915 107.273 131.23 107.288 131.552 107.288C131.875 107.288 132.204 107.288 132.541 107.288H133.969C133.72 104.563 133.442 101.861 133.134 99.1802C132.827 96.4995 132.504 93.7969 132.167 91.0723ZM152.009 90.0396C151.54 90.0103 150.998 89.9883 150.383 89.9736C149.782 89.959 149.138 89.9517 148.449 89.9517C148.347 91.314 148.259 92.7275 148.186 94.1924C148.127 95.6426 148.076 97.1221 148.032 98.6309C147.988 100.125 147.958 101.634 147.944 103.157C147.929 104.666 147.922 106.16 147.922 107.64C147.922 109.324 147.929 110.958 147.944 112.54C147.973 114.107 148.024 115.623 148.098 117.088H143.417C143.549 114.598 143.652 111.946 143.725 109.134C143.798 106.321 143.835 103.487 143.835 100.63C143.835 98.77 143.813 96.9536 143.769 95.1812C143.725 93.4087 143.681 91.6802 143.637 89.9956C142.934 89.9956 142.268 90.0029 141.638 90.0176C141.008 90.0322 140.444 90.0542 139.946 90.0835L139.99 85.4912C140.517 85.5352 141.11 85.5718 141.77 85.6011C142.429 85.6157 143.117 85.6304 143.835 85.645C144.567 85.6597 145.314 85.6743 146.076 85.689C146.838 85.689 147.585 85.689 148.317 85.689C149.05 85.689 149.738 85.689 150.383 85.689C151.042 85.689 151.628 85.6743 152.141 85.645L152.009 90.0396ZM162.6 116.692C162.014 116.663 161.428 116.641 160.842 116.626C160.256 116.612 159.67 116.604 159.084 116.604C158.117 116.604 157.15 116.626 156.184 116.67C155.217 116.7 154.25 116.751 153.283 116.824L153.327 112.1C153.664 112.144 154.001 112.181 154.338 112.21C154.675 112.225 155.012 112.247 155.349 112.276C155.437 110.005 155.517 107.75 155.59 105.508C155.678 103.252 155.722 100.997 155.722 98.7407C155.722 97.2319 155.7 95.7451 155.656 94.2803C155.612 92.8008 155.568 91.314 155.524 89.8198C155.144 89.8198 154.755 89.8271 154.36 89.8418C153.964 89.8564 153.562 89.8784 153.151 89.9077L153.195 85.3154C154.323 85.3887 155.451 85.4473 156.579 85.4912C157.707 85.5205 158.842 85.5352 159.985 85.5352C160.395 85.5352 160.805 85.5352 161.215 85.5352C161.625 85.5352 162.043 85.5205 162.468 85.4912L162.336 89.8638C161.999 89.8638 161.662 89.8564 161.325 89.8418C161.003 89.8271 160.673 89.8198 160.336 89.8198C160.131 92.4565 159.985 95.0786 159.897 97.686C159.809 100.279 159.765 102.894 159.765 105.53C159.765 107.83 159.809 110.123 159.897 112.408C160.366 112.408 160.842 112.4 161.325 112.386C161.823 112.371 162.321 112.349 162.819 112.32L162.6 116.692ZM179.255 85.9087C178.2 91.1382 177.277 96.3384 176.486 101.509C175.71 106.666 175.043 111.858 174.487 117.088L167.873 117.176C167.36 111.902 166.738 106.666 166.005 101.465C165.273 96.2651 164.453 91.0503 163.544 85.8208L169.038 85.7329C169.272 90.1274 169.58 94.4707 169.96 98.7627C170.341 103.055 170.766 107.361 171.235 111.683C171.806 107.317 172.312 102.967 172.751 98.6309C173.19 94.2803 173.542 89.915 173.806 85.5352L179.255 85.9087ZM189.362 116.692C188.776 116.663 188.19 116.641 187.604 116.626C187.019 116.612 186.433 116.604 185.847 116.604C184.88 116.604 183.913 116.626 182.946 116.67C181.979 116.7 181.013 116.751 180.046 116.824L180.09 112.1C180.427 112.144 180.764 112.181 181.101 112.21C181.438 112.225 181.774 112.247 182.111 112.276C182.199 110.005 182.28 107.75 182.353 105.508C182.441 103.252 182.485 100.997 182.485 98.7407C182.485 97.2319 182.463 95.7451 182.419 94.2803C182.375 92.8008 182.331 91.314 182.287 89.8198C181.906 89.8198 181.518 89.8271 181.123 89.8418C180.727 89.8564 180.324 89.8784 179.914 89.9077L179.958 85.3154C181.086 85.3887 182.214 85.4473 183.342 85.4912C184.47 85.5205 185.605 85.5352 186.748 85.5352C187.158 85.5352 187.568 85.5352 187.978 85.5352C188.388 85.5352 188.806 85.5205 189.23 85.4912L189.099 89.8638C188.762 89.8638 188.425 89.8564 188.088 89.8418C187.766 89.8271 187.436 89.8198 187.099 89.8198C186.894 92.4565 186.748 95.0786 186.66 97.686C186.572 100.279 186.528 102.894 186.528 105.53C186.528 107.83 186.572 110.123 186.66 112.408C187.128 112.408 187.604 112.4 188.088 112.386C188.586 112.371 189.084 112.349 189.582 112.32L189.362 116.692ZM205.424 102.059C205.424 104.329 205.256 106.292 204.919 107.947C204.597 109.588 204.165 110.987 203.623 112.144C203.081 113.301 202.465 114.239 201.777 114.957C201.103 115.674 200.415 116.231 199.711 116.626C199.008 117.022 198.327 117.286 197.668 117.417C197.009 117.564 196.43 117.637 195.932 117.637L191.428 117.264C191.618 114.275 191.765 111.272 191.867 108.255C191.97 105.223 192.021 102.168 192.021 99.0923C192.021 96.7632 191.992 94.4561 191.933 92.1709C191.875 89.8857 191.787 87.6006 191.669 85.3154C192.021 85.2861 192.365 85.2642 192.702 85.2495C193.039 85.2349 193.369 85.2275 193.691 85.2275C196.123 85.2275 198.1 85.645 199.624 86.48C201.147 87.3003 202.333 88.4575 203.183 89.9517C204.047 91.4312 204.633 93.2036 204.941 95.269C205.263 97.3198 205.424 99.583 205.424 102.059ZM200.942 101.465C200.942 100.748 200.927 99.9858 200.898 99.1802C200.869 98.3599 200.803 97.5469 200.7 96.7412C200.612 95.9355 200.473 95.1519 200.283 94.3901C200.092 93.6284 199.843 92.9326 199.536 92.3027C199.228 91.6582 198.847 91.1089 198.393 90.6548C197.954 90.2007 197.419 89.8784 196.789 89.688C196.701 91.2993 196.621 92.874 196.547 94.4121C196.489 95.9355 196.438 97.4443 196.394 98.9385C196.35 100.433 196.313 101.919 196.284 103.399C196.269 104.864 196.262 106.336 196.262 107.815C196.262 108.782 196.262 109.764 196.262 110.76C196.262 111.741 196.276 112.745 196.306 113.77C196.979 113.697 197.565 113.44 198.063 113.001C198.562 112.562 198.979 112.012 199.316 111.353C199.667 110.679 199.946 109.925 200.151 109.09C200.371 108.24 200.539 107.376 200.656 106.497C200.773 105.604 200.847 104.725 200.876 103.86C200.92 102.996 200.942 102.198 200.942 101.465ZM216.564 117.176C216.491 116.165 216.418 115.147 216.345 114.122C216.286 113.096 216.213 112.063 216.125 111.023C215.48 110.979 214.858 110.936 214.257 110.892C213.657 110.848 213.049 110.826 212.434 110.826H212.148C212.075 111.88 212.009 112.92 211.95 113.946C211.892 114.971 211.84 115.989 211.796 117L206.303 116.912C207.211 111.683 208.032 106.468 208.764 101.268C209.497 96.0674 210.119 90.8232 210.632 85.5352L217.246 85.645C217.802 90.8745 218.469 96.0747 219.245 101.246C220.036 106.402 220.959 111.595 222.014 116.824L216.564 117.176ZM213.994 91.0723C213.701 93.7676 213.422 96.4556 213.159 99.1362C212.895 101.817 212.653 104.52 212.434 107.244C212.741 107.273 213.056 107.288 213.378 107.288C213.701 107.288 214.03 107.288 214.367 107.288H215.795C215.546 104.563 215.268 101.861 214.96 99.1802C214.653 96.4995 214.331 93.7969 213.994 91.0723ZM237.285 102.059C237.285 104.329 237.116 106.292 236.779 107.947C236.457 109.588 236.025 110.987 235.483 112.144C234.941 113.301 234.326 114.239 233.637 114.957C232.963 115.674 232.275 116.231 231.572 116.626C230.869 117.022 230.188 117.286 229.528 117.417C228.869 117.564 228.291 117.637 227.792 117.637L223.288 117.264C223.479 114.275 223.625 111.272 223.728 108.255C223.83 105.223 223.881 102.168 223.881 99.0923C223.881 96.7632 223.852 94.4561 223.793 92.1709C223.735 89.8857 223.647 87.6006 223.53 85.3154C223.881 85.2861 224.226 85.2642 224.562 85.2495C224.899 85.2349 225.229 85.2275 225.551 85.2275C227.983 85.2275 229.96 85.645 231.484 86.48C233.007 87.3003 234.194 88.4575 235.043 89.9517C235.908 91.4312 236.494 93.2036 236.801 95.269C237.124 97.3198 237.285 99.583 237.285 102.059ZM232.802 101.465C232.802 100.748 232.788 99.9858 232.758 99.1802C232.729 98.3599 232.663 97.5469 232.561 96.7412C232.473 95.9355 232.333 95.1519 232.143 94.3901C231.953 93.6284 231.704 92.9326 231.396 92.3027C231.088 91.6582 230.708 91.1089 230.253 90.6548C229.814 90.2007 229.279 89.8784 228.649 89.688C228.562 91.2993 228.481 92.874 228.408 94.4121C228.349 95.9355 228.298 97.4443 228.254 98.9385C228.21 100.433 228.173 101.919 228.144 103.399C228.129 104.864 228.122 106.336 228.122 107.815C228.122 108.782 228.122 109.764 228.122 110.76C228.122 111.741 228.137 112.745 228.166 113.77C228.84 113.697 229.426 113.44 229.924 113.001C230.422 112.562 230.839 112.012 231.176 111.353C231.528 110.679 231.806 109.925 232.011 109.09C232.231 108.24 232.399 107.376 232.517 106.497C232.634 105.604 232.707 104.725 232.736 103.86C232.78 102.996 232.802 102.198 232.802 101.465ZM248.601 105.245C248.146 105.215 247.685 105.193 247.216 105.179C246.748 105.164 246.279 105.157 245.81 105.157C245.546 105.157 245.268 105.164 244.975 105.179C244.697 105.193 244.418 105.201 244.14 105.201L244.052 113.045C245.253 113.016 246.418 112.957 247.546 112.869C248.688 112.781 249.897 112.642 251.171 112.452V117.044C250.351 117.015 249.553 116.993 248.776 116.978C248.015 116.963 247.253 116.956 246.491 116.956C245.349 116.956 244.221 116.971 243.107 117C241.994 117.044 240.844 117.103 239.658 117.176C239.79 114.451 239.892 111.756 239.965 109.09C240.053 106.409 240.097 103.707 240.097 100.982C240.097 98.3745 240.061 95.7891 239.987 93.2256C239.929 90.6475 239.819 88.0547 239.658 85.4473C241.386 85.5791 243.034 85.645 244.602 85.645C245.598 85.645 246.586 85.623 247.568 85.5791C248.564 85.5205 249.626 85.4473 250.754 85.3594V90.4131C249.846 90.252 248.945 90.1274 248.051 90.0396C247.172 89.9517 246.293 89.9077 245.415 89.9077H244.558C244.411 91.7388 244.309 93.5625 244.25 95.3789C244.206 97.1953 244.169 99.019 244.14 100.85C244.521 100.879 244.902 100.894 245.283 100.894C245.678 100.894 246.081 100.894 246.491 100.894C246.828 100.894 247.172 100.894 247.524 100.894C247.875 100.894 248.234 100.879 248.601 100.85V105.245Z" fill="white"/>
<path d="M165.681 74.4507C165.11 74.7144 164.546 74.9121 163.989 75.0439C163.433 75.1904 162.935 75.3003 162.495 75.3735C161.982 75.4468 161.484 75.4907 161.001 75.5054C160.474 75.5054 159.902 75.4102 159.287 75.2197C158.687 75.0293 158.079 74.707 157.463 74.2529C156.848 73.7842 156.255 73.1543 155.684 72.3633C155.112 71.5576 154.607 70.5542 154.167 69.353C153.728 68.1372 153.376 66.687 153.113 65.0024C152.849 63.3179 152.717 61.355 152.717 59.1138C152.717 56.8726 152.871 54.917 153.179 53.2471C153.501 51.5771 153.911 50.1489 154.409 48.9624C154.922 47.7612 155.493 46.7798 156.123 46.0181C156.768 45.2417 157.419 44.6338 158.079 44.1943C158.738 43.7402 159.375 43.4326 159.99 43.2715C160.62 43.0957 161.162 43.0078 161.616 43.0078C162.041 43.0225 162.458 43.0664 162.869 43.1396C163.22 43.2129 163.586 43.3228 163.967 43.4692C164.363 43.6157 164.707 43.8208 165 44.0845L164.561 48.501C164.15 48.2959 163.762 48.1494 163.396 48.0615C163.044 47.959 162.708 47.9077 162.385 47.9077C161.77 47.9077 161.221 48.0762 160.737 48.4131C160.269 48.7354 159.858 49.1675 159.507 49.7095C159.17 50.2515 158.877 50.8667 158.628 51.5552C158.394 52.2437 158.203 52.9468 158.057 53.6646C157.69 55.3491 157.485 57.2681 157.441 59.4214C157.485 61.5601 157.698 63.4644 158.079 65.1343C158.24 65.8521 158.438 66.5552 158.672 67.2437C158.921 67.9175 159.221 68.5254 159.573 69.0674C159.924 69.5947 160.334 70.0195 160.803 70.3418C161.287 70.6641 161.843 70.8252 162.473 70.8252C163.162 70.8252 163.96 70.5835 164.868 70.1001L165.681 74.4507ZM180.183 52.8516C180.183 53.833 180.088 54.8218 179.897 55.8179C179.722 56.7993 179.429 57.7515 179.019 58.6743C178.608 59.5825 178.081 60.4395 177.437 61.2451C176.792 62.0361 176.001 62.7393 175.063 63.3545C175.884 65.4492 176.785 67.4634 177.766 69.397C178.762 71.3159 179.868 73.1689 181.084 74.9561L175.591 75.2637L171.855 64.6509C171.914 66.438 171.987 68.2104 172.075 69.9683C172.163 71.7261 172.273 73.4619 172.405 75.1758H167.043C167.278 71.8506 167.446 68.5254 167.549 65.2002C167.666 61.875 167.725 58.5278 167.725 55.1587C167.725 53.2104 167.71 51.2695 167.681 49.3359C167.651 47.3877 167.593 45.4248 167.505 43.4473C168.281 43.2129 169.065 43.0591 169.856 42.9858C170.662 42.9126 171.343 42.876 171.899 42.876C172.295 42.876 172.771 42.9199 173.328 43.0078C173.899 43.0811 174.492 43.2422 175.107 43.4912C175.723 43.7402 176.331 44.0918 176.931 44.5459C177.546 45 178.088 45.6006 178.557 46.3477C179.041 47.0801 179.429 47.981 179.722 49.0503C180.029 50.105 180.183 51.3721 180.183 52.8516ZM171.812 61.0913C172.324 60.9448 172.771 60.7324 173.152 60.4541C173.547 60.1611 173.892 59.8315 174.185 59.4653C174.478 59.0991 174.719 58.7109 174.91 58.3008C175.115 57.8906 175.283 57.4805 175.415 57.0703C175.708 56.1182 175.876 55.0781 175.92 53.9502C175.92 53.9209 175.913 53.7451 175.898 53.4229C175.898 53.0859 175.862 52.6685 175.789 52.1704C175.715 51.6724 175.605 51.1304 175.459 50.5444C175.327 49.9585 175.129 49.3945 174.866 48.8525C174.602 48.2959 174.265 47.8052 173.855 47.3804C173.445 46.9556 172.947 46.6553 172.361 46.4795C172.185 48.7793 172.046 51.0718 171.943 53.3569C171.855 55.6274 171.812 57.9199 171.812 60.2344V61.0913ZM191.257 74.6924C190.671 74.6631 190.085 74.6411 189.5 74.6265C188.914 74.6118 188.328 74.6045 187.742 74.6045C186.775 74.6045 185.808 74.6265 184.841 74.6704C183.875 74.6997 182.908 74.751 181.941 74.8242L181.985 70.1001C182.322 70.144 182.659 70.1807 182.996 70.21C183.333 70.2246 183.669 70.2466 184.006 70.2759C184.094 68.0054 184.175 65.7495 184.248 63.5083C184.336 61.2524 184.38 58.9966 184.38 56.7407C184.38 55.2319 184.358 53.7451 184.314 52.2803C184.27 50.8008 184.226 49.314 184.182 47.8198C183.801 47.8198 183.413 47.8271 183.018 47.8418C182.622 47.8564 182.219 47.8784 181.809 47.9077L181.853 43.3154C182.981 43.3887 184.109 43.4473 185.237 43.4912C186.365 43.5205 187.5 43.5352 188.643 43.5352C189.053 43.5352 189.463 43.5352 189.873 43.5352C190.283 43.5352 190.701 43.5205 191.125 43.4912L190.994 47.8638C190.657 47.8638 190.32 47.8564 189.983 47.8418C189.661 47.8271 189.331 47.8198 188.994 47.8198C188.789 50.4565 188.643 53.0786 188.555 55.686C188.467 58.2788 188.423 60.8936 188.423 63.5303C188.423 65.8301 188.467 68.1226 188.555 70.4077C189.023 70.4077 189.5 70.4004 189.983 70.3857C190.481 70.3711 190.979 70.3491 191.477 70.3198L191.257 74.6924ZM202.463 75.1758C202.39 74.165 202.317 73.147 202.244 72.1216C202.185 71.0962 202.112 70.0635 202.024 69.0234C201.379 68.9795 200.757 68.9355 200.156 68.8916C199.556 68.8477 198.948 68.8257 198.333 68.8257H198.047C197.974 69.8804 197.908 70.9204 197.849 71.9458C197.791 72.9712 197.739 73.9893 197.695 75L192.202 74.9121C193.11 69.6826 193.931 64.4678 194.663 59.2676C195.396 54.0674 196.018 48.8232 196.531 43.5352L203.145 43.645C203.701 48.8745 204.368 54.0747 205.144 59.2456C205.935 64.4019 206.858 69.5947 207.913 74.8242L202.463 75.1758ZM199.893 49.0723C199.6 51.7676 199.321 54.4556 199.058 57.1362C198.794 59.8169 198.552 62.5195 198.333 65.2441C198.64 65.2734 198.955 65.2881 199.277 65.2881C199.6 65.2881 199.929 65.2881 200.266 65.2881H201.694C201.445 62.5635 201.167 59.8608 200.859 57.1802C200.552 54.4995 200.229 51.7969 199.893 49.0723ZM222.239 52.8516C222.239 53.833 222.144 54.8218 221.953 55.8179C221.777 56.7993 221.484 57.7515 221.074 58.6743C220.664 59.5825 220.137 60.4395 219.492 61.2451C218.848 62.0361 218.057 62.7393 217.119 63.3545C217.939 65.4492 218.84 67.4634 219.822 69.397C220.818 71.3159 221.924 73.1689 223.14 74.9561L217.646 75.2637L213.911 64.6509C213.97 66.438 214.043 68.2104 214.131 69.9683C214.219 71.7261 214.329 73.4619 214.46 75.1758H209.099C209.333 71.8506 209.502 68.5254 209.604 65.2002C209.722 61.875 209.78 58.5278 209.78 55.1587C209.78 53.2104 209.766 51.2695 209.736 49.3359C209.707 47.3877 209.648 45.4248 209.561 43.4473C210.337 43.2129 211.121 43.0591 211.912 42.9858C212.717 42.9126 213.398 42.876 213.955 42.876C214.351 42.876 214.827 42.9199 215.383 43.0078C215.955 43.0811 216.548 43.2422 217.163 43.4912C217.778 43.7402 218.386 44.0918 218.987 44.5459C219.602 45 220.144 45.6006 220.613 46.3477C221.096 47.0801 221.484 47.981 221.777 49.0503C222.085 50.105 222.239 51.3721 222.239 52.8516ZM213.867 61.0913C214.38 60.9448 214.827 60.7324 215.208 60.4541C215.603 60.1611 215.947 59.8315 216.24 59.4653C216.533 59.0991 216.775 58.7109 216.965 58.3008C217.17 57.8906 217.339 57.4805 217.471 57.0703C217.764 56.1182 217.932 55.0781 217.976 53.9502C217.976 53.9209 217.969 53.7451 217.954 53.4229C217.954 53.0859 217.917 52.6685 217.844 52.1704C217.771 51.6724 217.661 51.1304 217.515 50.5444C217.383 49.9585 217.185 49.3945 216.921 48.8525C216.658 48.2959 216.321 47.8052 215.911 47.3804C215.5 46.9556 215.002 46.6553 214.417 46.4795C214.241 48.7793 214.102 51.0718 213.999 53.3569C213.911 55.6274 213.867 57.9199 213.867 60.2344V61.0913Z" fill="white"/>
</svg>
