<svg width="375" height="390" viewBox="0 0 375 390" fill="none" xmlns="http://www.w3.org/2000/svg">
<g filter="url(#filter0_d)">
<circle cx="188" cy="193" r="152" fill="#D20000"/>
<circle cx="188" cy="193" r="149" stroke="black" stroke-width="6"/>
</g>
<g filter="url(#filter1_d)">
<path d="M69.0625 221.453C68.0208 221.401 66.9792 221.362 65.9375 221.336C64.8958 221.31 63.8542 221.297 62.8125 221.297C61.0938 221.297 59.375 221.336 57.6562 221.414C55.9375 221.466 54.2188 221.557 52.5 221.688L52.5781 213.289C53.1771 213.367 53.776 213.432 54.375 213.484C54.974 213.51 55.5729 213.549 56.1719 213.602C56.3281 209.565 56.4714 205.555 56.6016 201.57C56.7578 197.56 56.8359 193.549 56.8359 189.539C56.8359 186.857 56.7969 184.214 56.7188 181.609C56.6406 178.979 56.5625 176.336 56.4844 173.68C55.8073 173.68 55.1172 173.693 54.4141 173.719C53.7109 173.745 52.9948 173.784 52.2656 173.836L52.3438 165.672C54.349 165.802 56.3542 165.906 58.3594 165.984C60.3646 166.036 62.3828 166.062 64.4141 166.062C65.1432 166.062 65.8724 166.062 66.6016 166.062C67.3307 166.062 68.0729 166.036 68.8281 165.984L68.5938 173.758C67.9948 173.758 67.3958 173.745 66.7969 173.719C66.224 173.693 65.638 173.68 65.0391 173.68C64.6745 178.367 64.4141 183.029 64.2578 187.664C64.1016 192.273 64.0234 196.922 64.0234 201.609C64.0234 205.698 64.1016 209.773 64.2578 213.836C65.0911 213.836 65.9375 213.823 66.7969 213.797C67.6823 213.771 68.5677 213.732 69.4531 213.68L69.0625 221.453ZM101.328 165.672C100.99 170.906 100.729 176.102 100.547 181.258C100.365 186.388 100.273 191.544 100.273 196.727C100.273 200.763 100.326 204.747 100.43 208.68C100.56 212.612 100.768 216.57 101.055 220.555L93.1641 220.32C92.1224 216.935 91.0938 213.576 90.0781 210.242C89.0885 206.883 88.099 203.549 87.1094 200.242C86.1198 196.935 85.1042 193.641 84.0625 190.359C83.0469 187.078 81.9922 183.81 80.8984 180.555C80.9766 187.352 81.0938 194.135 81.25 200.906C81.4323 207.651 81.7448 214.383 82.1875 221.102L73.1641 221.023C73.4766 212.716 73.6328 204.37 73.6328 195.984C73.6328 190.828 73.5807 185.724 73.4766 180.672C73.3724 175.62 73.2161 170.542 73.0078 165.438L83.9453 165.672C85.2734 171.401 86.6927 177.221 88.2031 183.133C89.7135 189.044 91.3151 194.878 93.0078 200.633C92.8255 194.747 92.5521 188.862 92.1875 182.977C91.849 177.065 91.4714 171.271 91.0547 165.594L101.328 165.672ZM126.016 208.172C126.016 210.229 125.794 212.039 125.352 213.602C124.935 215.138 124.375 216.466 123.672 217.586C122.995 218.68 122.227 219.591 121.367 220.32C120.508 221.023 119.622 221.583 118.711 222C117.826 222.417 116.966 222.703 116.133 222.859C115.326 223.042 114.622 223.133 114.023 223.133C113.711 223.133 113.281 223.107 112.734 223.055C112.188 223.029 111.562 222.951 110.859 222.82C110.156 222.69 109.375 222.495 108.516 222.234C107.682 222 106.797 221.661 105.859 221.219L106.289 211.375C107.826 212.677 109.193 213.549 110.391 213.992C111.615 214.435 112.643 214.656 113.477 214.656C115.091 214.656 116.302 214.07 117.109 212.898C117.943 211.727 118.359 210.203 118.359 208.328C118.359 207.078 118.047 205.685 117.422 204.148C116.823 202.586 115.742 200.906 114.18 199.109C113.112 197.859 112.005 196.557 110.859 195.203C109.714 193.849 108.672 192.404 107.734 190.867C106.797 189.331 106.029 187.677 105.43 185.906C104.831 184.135 104.531 182.221 104.531 180.164C104.531 177.56 104.883 175.307 105.586 173.406C106.315 171.505 107.279 169.93 108.477 168.68C109.674 167.43 111.042 166.505 112.578 165.906C114.141 165.281 115.768 164.969 117.461 164.969C118.945 164.969 120.456 165.177 121.992 165.594C123.555 165.984 125.117 166.596 126.68 167.43L125.938 177.273C125.26 176.414 124.544 175.737 123.789 175.242C123.06 174.721 122.344 174.331 121.641 174.07C120.964 173.81 120.326 173.641 119.727 173.562C119.154 173.484 118.672 173.445 118.281 173.445C117.526 173.445 116.823 173.641 116.172 174.031C115.547 174.396 115 174.904 114.531 175.555C114.089 176.18 113.737 176.935 113.477 177.82C113.216 178.68 113.086 179.591 113.086 180.555C113.086 182.039 113.398 183.38 114.023 184.578C114.674 185.776 115.482 186.961 116.445 188.133C117.409 189.305 118.438 190.516 119.531 191.766C120.651 192.99 121.693 194.383 122.656 195.945C123.62 197.482 124.414 199.253 125.039 201.258C125.69 203.237 126.016 205.542 126.016 208.172ZM149.766 174.07C148.932 174.018 147.969 173.979 146.875 173.953C145.807 173.927 144.661 173.914 143.438 173.914C143.255 176.336 143.099 178.849 142.969 181.453C142.865 184.031 142.773 186.661 142.695 189.344C142.617 192 142.565 194.682 142.539 197.391C142.513 200.073 142.5 202.729 142.5 205.359C142.5 208.354 142.513 211.258 142.539 214.07C142.591 216.857 142.682 219.552 142.812 222.156H134.492C134.727 217.729 134.909 213.016 135.039 208.016C135.169 203.016 135.234 197.977 135.234 192.898C135.234 189.591 135.195 186.362 135.117 183.211C135.039 180.06 134.961 176.987 134.883 173.992C133.633 173.992 132.448 174.005 131.328 174.031C130.208 174.057 129.206 174.096 128.32 174.148L128.398 165.984C129.336 166.062 130.391 166.128 131.562 166.18C132.734 166.206 133.958 166.232 135.234 166.258C136.536 166.284 137.865 166.31 139.219 166.336C140.573 166.336 141.901 166.336 143.203 166.336C144.505 166.336 145.729 166.336 146.875 166.336C148.047 166.336 149.089 166.31 150 166.258L149.766 174.07ZM168.594 221.453C167.552 221.401 166.51 221.362 165.469 221.336C164.427 221.31 163.385 221.297 162.344 221.297C160.625 221.297 158.906 221.336 157.188 221.414C155.469 221.466 153.75 221.557 152.031 221.688L152.109 213.289C152.708 213.367 153.307 213.432 153.906 213.484C154.505 213.51 155.104 213.549 155.703 213.602C155.859 209.565 156.003 205.555 156.133 201.57C156.289 197.56 156.367 193.549 156.367 189.539C156.367 186.857 156.328 184.214 156.25 181.609C156.172 178.979 156.094 176.336 156.016 173.68C155.339 173.68 154.648 173.693 153.945 173.719C153.242 173.745 152.526 173.784 151.797 173.836L151.875 165.672C153.88 165.802 155.885 165.906 157.891 165.984C159.896 166.036 161.914 166.062 163.945 166.062C164.674 166.062 165.404 166.062 166.133 166.062C166.862 166.062 167.604 166.036 168.359 165.984L168.125 173.758C167.526 173.758 166.927 173.745 166.328 173.719C165.755 173.693 165.169 173.68 164.57 173.68C164.206 178.367 163.945 183.029 163.789 187.664C163.633 192.273 163.555 196.922 163.555 201.609C163.555 205.698 163.633 209.773 163.789 213.836C164.622 213.836 165.469 213.823 166.328 213.797C167.214 213.771 168.099 213.732 168.984 213.68L168.594 221.453ZM192.031 174.07C191.198 174.018 190.234 173.979 189.141 173.953C188.073 173.927 186.927 173.914 185.703 173.914C185.521 176.336 185.365 178.849 185.234 181.453C185.13 184.031 185.039 186.661 184.961 189.344C184.883 192 184.831 194.682 184.805 197.391C184.779 200.073 184.766 202.729 184.766 205.359C184.766 208.354 184.779 211.258 184.805 214.07C184.857 216.857 184.948 219.552 185.078 222.156H176.758C176.992 217.729 177.174 213.016 177.305 208.016C177.435 203.016 177.5 197.977 177.5 192.898C177.5 189.591 177.461 186.362 177.383 183.211C177.305 180.06 177.227 176.987 177.148 173.992C175.898 173.992 174.714 174.005 173.594 174.031C172.474 174.057 171.471 174.096 170.586 174.148L170.664 165.984C171.602 166.062 172.656 166.128 173.828 166.18C175 166.206 176.224 166.232 177.5 166.258C178.802 166.284 180.13 166.31 181.484 166.336C182.839 166.336 184.167 166.336 185.469 166.336C186.771 166.336 187.995 166.336 189.141 166.336C190.312 166.336 191.354 166.31 192.266 166.258L192.031 174.07ZM217.5 165.438C218.099 170.75 218.516 176.128 218.75 181.57C218.984 186.987 219.102 192.651 219.102 198.562C219.102 200.568 219.01 202.56 218.828 204.539C218.672 206.492 218.385 208.367 217.969 210.164C217.578 211.935 217.044 213.589 216.367 215.125C215.716 216.635 214.896 217.951 213.906 219.07C212.917 220.164 211.745 221.036 210.391 221.688C209.036 222.312 207.487 222.625 205.742 222.625C204.18 222.625 202.812 222.339 201.641 221.766C200.469 221.167 199.466 220.359 198.633 219.344C197.799 218.302 197.096 217.091 196.523 215.711C195.977 214.305 195.547 212.794 195.234 211.18C194.922 209.539 194.701 207.833 194.57 206.062C194.44 204.292 194.375 202.508 194.375 200.711C194.375 195.294 194.596 189.812 195.039 184.266C195.482 178.693 196.003 172.924 196.602 166.961L204.766 167.117C204.297 172.716 203.854 178.367 203.438 184.07C203.047 189.773 202.852 195.646 202.852 201.688C202.852 203.432 202.904 205.086 203.008 206.648C203.112 208.211 203.294 209.591 203.555 210.789C203.815 211.961 204.141 212.898 204.531 213.602C204.948 214.305 205.456 214.656 206.055 214.656C206.758 214.656 207.396 214.109 207.969 213.016C208.568 211.896 209.062 210.438 209.453 208.641C209.87 206.818 210.195 204.747 210.43 202.43C210.664 200.112 210.781 197.755 210.781 195.359C210.781 193.068 210.755 190.763 210.703 188.445C210.677 186.128 210.625 183.784 210.547 181.414C210.469 179.018 210.365 176.583 210.234 174.109C210.104 171.609 209.935 169.018 209.727 166.336L217.5 165.438ZM239.688 221.453C238.646 221.401 237.604 221.362 236.562 221.336C235.521 221.31 234.479 221.297 233.438 221.297C231.719 221.297 230 221.336 228.281 221.414C226.562 221.466 224.844 221.557 223.125 221.688L223.203 213.289C223.802 213.367 224.401 213.432 225 213.484C225.599 213.51 226.198 213.549 226.797 213.602C226.953 209.565 227.096 205.555 227.227 201.57C227.383 197.56 227.461 193.549 227.461 189.539C227.461 186.857 227.422 184.214 227.344 181.609C227.266 178.979 227.188 176.336 227.109 173.68C226.432 173.68 225.742 173.693 225.039 173.719C224.336 173.745 223.62 173.784 222.891 173.836L222.969 165.672C224.974 165.802 226.979 165.906 228.984 165.984C230.99 166.036 233.008 166.062 235.039 166.062C235.768 166.062 236.497 166.062 237.227 166.062C237.956 166.062 238.698 166.036 239.453 165.984L239.219 173.758C238.62 173.758 238.021 173.745 237.422 173.719C236.849 173.693 236.263 173.68 235.664 173.68C235.299 178.367 235.039 183.029 234.883 187.664C234.727 192.273 234.648 196.922 234.648 201.609C234.648 205.698 234.727 209.773 234.883 213.836C235.716 213.836 236.562 213.823 237.422 213.797C238.307 213.771 239.193 213.732 240.078 213.68L239.688 221.453ZM258.906 230.32C258.906 231.102 258.763 231.805 258.477 232.43C258.19 233.081 257.799 233.641 257.305 234.109C256.81 234.604 256.224 234.995 255.547 235.281C254.896 235.594 254.206 235.802 253.477 235.906C252.695 236.036 251.992 236.076 251.367 236.023C250.768 235.997 250.247 235.919 249.805 235.789C249.31 235.659 248.88 235.49 248.516 235.281V230.945C248.62 231.076 248.802 231.193 249.062 231.297C249.349 231.401 249.648 231.479 249.961 231.531C250.273 231.609 250.586 231.661 250.898 231.688C251.211 231.74 251.458 231.766 251.641 231.766C252.24 231.766 252.76 231.648 253.203 231.414C253.646 231.206 253.867 230.737 253.867 230.008C253.867 229.669 253.776 229.383 253.594 229.148C253.438 228.914 253.229 228.719 252.969 228.562C252.708 228.432 252.422 228.328 252.109 228.25C251.797 228.198 251.497 228.172 251.211 228.172C250.846 228.172 250.469 228.185 250.078 228.211C249.714 228.263 249.349 228.354 248.984 228.484L251.719 221.375C250.547 220.672 249.388 219.656 248.242 218.328C247.096 216.974 246.068 215.203 245.156 213.016C244.271 210.802 243.555 208.12 243.008 204.969C242.461 201.818 242.188 198.081 242.188 193.758C242.188 189.773 242.461 186.297 243.008 183.328C243.581 180.359 244.31 177.82 245.195 175.711C246.107 173.576 247.122 171.831 248.242 170.477C249.388 169.096 250.547 168.016 251.719 167.234C252.891 166.427 254.023 165.88 255.117 165.594C256.237 165.281 257.201 165.125 258.008 165.125C258.763 165.151 259.505 165.229 260.234 165.359C260.859 165.49 261.51 165.685 262.188 165.945C262.891 166.206 263.503 166.57 264.023 167.039L263.242 174.891C262.513 174.526 261.823 174.266 261.172 174.109C260.547 173.927 259.948 173.836 259.375 173.836C258.281 173.836 257.305 174.135 256.445 174.734C255.612 175.307 254.883 176.076 254.258 177.039C253.659 178.003 253.138 179.096 252.695 180.32C252.279 181.544 251.94 182.794 251.68 184.07C251.029 187.065 250.664 190.477 250.586 194.305C250.664 198.107 251.042 201.492 251.719 204.461C252.005 205.737 252.357 206.987 252.773 208.211C253.216 209.409 253.75 210.49 254.375 211.453C255 212.391 255.729 213.146 256.562 213.719C257.422 214.292 258.411 214.578 259.531 214.578C260.755 214.578 262.174 214.148 263.789 213.289L265.234 221.023C264.219 221.492 263.216 221.844 262.227 222.078C261.237 222.339 260.352 222.534 259.57 222.664C258.659 222.794 257.773 222.872 256.914 222.898C256.497 222.898 256.081 222.859 255.664 222.781C255.273 222.703 254.857 222.599 254.414 222.469L253.789 225.203C254.544 225.177 255.234 225.281 255.859 225.516C256.484 225.776 257.018 226.128 257.461 226.57C257.93 227.039 258.281 227.586 258.516 228.211C258.776 228.862 258.906 229.565 258.906 230.32ZM284.062 222.312C283.932 220.516 283.802 218.706 283.672 216.883C283.568 215.06 283.438 213.224 283.281 211.375C282.135 211.297 281.029 211.219 279.961 211.141C278.893 211.062 277.812 211.023 276.719 211.023H276.211C276.081 212.898 275.964 214.747 275.859 216.57C275.755 218.393 275.664 220.203 275.586 222L265.82 221.844C267.435 212.547 268.893 203.276 270.195 194.031C271.497 184.786 272.604 175.464 273.516 166.062L285.273 166.258C286.263 175.555 287.448 184.799 288.828 193.992C290.234 203.159 291.875 212.391 293.75 221.688L284.062 222.312ZM279.492 175.906C278.971 180.698 278.477 185.477 278.008 190.242C277.539 195.008 277.109 199.812 276.719 204.656C277.266 204.708 277.826 204.734 278.398 204.734C278.971 204.734 279.557 204.734 280.156 204.734H282.695C282.253 199.891 281.758 195.086 281.211 190.32C280.664 185.555 280.091 180.75 279.492 175.906ZM291.289 157.664C290.716 158.836 290.052 159.878 289.297 160.789C288.646 161.57 287.839 162.286 286.875 162.938C285.938 163.589 284.87 163.914 283.672 163.914C282.891 163.888 282.188 163.68 281.562 163.289C280.964 162.898 280.378 162.469 279.805 162C279.258 161.531 278.685 161.115 278.086 160.75C277.513 160.359 276.875 160.164 276.172 160.164C275.26 160.164 274.531 160.49 273.984 161.141C273.438 161.766 272.826 162.69 272.148 163.914L268.242 160.047C268.659 159.109 269.076 158.25 269.492 157.469C269.909 156.688 270.378 156.023 270.898 155.477C271.445 154.904 272.057 154.461 272.734 154.148C273.438 153.836 274.284 153.68 275.273 153.68C276.341 153.68 277.253 153.862 278.008 154.227C278.763 154.565 279.44 154.943 280.039 155.359C280.638 155.776 281.185 156.167 281.68 156.531C282.201 156.87 282.734 157.039 283.281 157.039C284.01 157.039 284.648 156.831 285.195 156.414C285.768 155.971 286.263 155.49 286.68 154.969C287.148 154.344 287.565 153.641 287.93 152.859L291.289 157.664ZM322.422 194.656C322.422 199.891 322.057 204.331 321.328 207.977C320.625 211.622 319.661 214.591 318.438 216.883C317.214 219.148 315.768 220.802 314.102 221.844C312.435 222.859 310.651 223.367 308.75 223.367C306.849 223.367 305.065 222.885 303.398 221.922C301.732 220.932 300.273 219.318 299.023 217.078C297.773 214.839 296.784 211.883 296.055 208.211C295.352 204.539 295 200.021 295 194.656C295 189.266 295.352 184.695 296.055 180.945C296.784 177.169 297.773 174.109 299.023 171.766C300.273 169.396 301.732 167.69 303.398 166.648C305.065 165.581 306.849 165.047 308.75 165.047C310.651 165.047 312.435 165.568 314.102 166.609C315.768 167.625 317.214 169.305 318.438 171.648C319.661 173.992 320.625 177.052 321.328 180.828C322.057 184.578 322.422 189.188 322.422 194.656ZM313.711 194.656C313.711 190.568 313.581 187.117 313.32 184.305C313.06 181.492 312.695 179.214 312.227 177.469C311.784 175.698 311.263 174.422 310.664 173.641C310.065 172.859 309.427 172.469 308.75 172.469C308.047 172.469 307.383 172.872 306.758 173.68C306.159 174.461 305.625 175.737 305.156 177.508C304.714 179.253 304.362 181.544 304.102 184.383C303.841 187.195 303.711 190.62 303.711 194.656C303.711 198.667 303.841 202.039 304.102 204.773C304.362 207.482 304.714 209.669 305.156 211.336C305.625 212.977 306.159 214.148 306.758 214.852C307.383 215.555 308.047 215.906 308.75 215.906C309.427 215.906 310.065 215.542 310.664 214.812C311.263 214.057 311.784 212.846 312.227 211.18C312.695 209.487 313.06 207.286 313.32 204.578C313.581 201.87 313.711 198.562 313.711 194.656Z" fill="white"/>
</g>
<circle cx="365" cy="53" r="51" fill="#FBCF35" stroke="black" stroke-width="4"/>
<circle cx="299" cy="327" r="51" fill="#8BAE00" stroke="black" stroke-width="4"/>
<circle cx="60" cy="64" r="51" fill="#361CD8"/>
<circle cx="60" cy="64" r="51" fill="#361CD8"/>
<circle cx="60" cy="64" r="51" stroke="black" stroke-width="4"/>
<circle cx="7" cy="337" r="51" fill="#361CD8"/>
<circle cx="7" cy="337" r="51" fill="#D81CAE"/>
<circle cx="7" cy="337" r="51" stroke="black" stroke-width="4"/>
<defs>
<filter id="filter0_d" x="20" y="29" width="336" height="336" filterUnits="userSpaceOnUse" color-interpolation-filters="sRGB">
<feFlood flood-opacity="0" result="BackgroundImageFix"/>
<feColorMatrix in="SourceAlpha" type="matrix" values="0 0 0 0 0 0 0 0 0 0 0 0 0 0 0 0 0 0 127 0"/>
<feMorphology radius="7" operator="dilate" in="SourceAlpha" result="effect1_dropShadow"/>
<feOffset dy="4"/>
<feGaussianBlur stdDeviation="4.5"/>
<feColorMatrix type="matrix" values="0 0 0 0 0 0 0 0 0 0 0 0 0 0 0 0 0 0 0.25 0"/>
<feBlend mode="normal" in2="BackgroundImageFix" result="effect1_dropShadow"/>
<feBlend mode="normal" in="SourceGraphic" in2="effect1_dropShadow" result="shape"/>
</filter>
<filter id="filter1_d" x="46.2656" y="150.859" width="282.156" height="95.1864" filterUnits="userSpaceOnUse" color-interpolation-filters="sRGB">
<feFlood flood-opacity="0" result="BackgroundImageFix"/>
<feColorMatrix in="SourceAlpha" type="matrix" values="0 0 0 0 0 0 0 0 0 0 0 0 0 0 0 0 0 0 127 0"/>
<feOffset dy="4"/>
<feGaussianBlur stdDeviation="3"/>
<feColorMatrix type="matrix" values="0 0 0 0 0 0 0 0 0 0 0 0 0 0 0 0 0 0 0.25 0"/>
<feBlend mode="normal" in2="BackgroundImageFix" result="effect1_dropShadow"/>
<feBlend mode="normal" in="SourceGraphic" in2="effect1_dropShadow" result="shape"/>
</filter>
</defs>
</svg>
