<svg width="375" height="430" viewBox="0 0 375 430" fill="none" xmlns="http://www.w3.org/2000/svg">
<g filter="url(#filter0_d)">
<circle cx="181" cy="193" r="152" fill="#D20000"/>
<circle cx="181" cy="193" r="149" stroke="black" stroke-width="6"/>
</g>
<g filter="url(#filter1_d)">
<path d="M100.344 214.25C100.344 216.188 100.125 218.188 99.6875 220.25C99.2812 222.312 98.625 224.297 97.7188 226.203C96.8438 228.109 95.7188 229.859 94.3438 231.453C92.9688 233.047 91.3281 234.344 89.4219 235.344C91.2656 236.156 92.7188 237.172 93.7812 238.391C94.875 239.609 95.7031 240.875 96.2656 242.188C96.8281 243.469 97.1875 244.703 97.3438 245.891C97.5 247.047 97.5781 247.984 97.5781 248.703C97.5781 251.078 97.2188 253.125 96.5 254.844C95.8125 256.531 94.9219 257.969 93.8281 259.156C92.7344 260.312 91.5 261.25 90.125 261.969C88.7812 262.656 87.4375 263.188 86.0938 263.562C84.7812 263.938 83.5469 264.172 82.3906 264.266C81.2344 264.391 80.3125 264.453 79.625 264.453C78.75 264.422 77.8594 264.344 76.9531 264.219C76.1719 264.094 75.3281 263.906 74.4219 263.656C73.5469 263.438 72.75 263.094 72.0312 262.625C72.2188 256.688 72.3125 250.766 72.3125 244.859C72.3125 236.828 72.125 228.891 71.75 221.047C71.4062 213.203 70.8906 205.297 70.2031 197.328C71.6406 196.891 73.0625 196.547 74.4688 196.297C75.9062 196.047 77.2031 195.859 78.3594 195.734C79.7031 195.609 80.9844 195.531 82.2031 195.5C83.1719 195.5 84.2812 195.625 85.5312 195.875C86.8125 196.094 88.125 196.5 89.4688 197.094C90.8125 197.656 92.125 198.406 93.4062 199.344C94.7188 200.25 95.8906 201.406 96.9219 202.812C97.9531 204.188 98.7812 205.828 99.4062 207.734C100.031 209.609 100.344 211.781 100.344 214.25ZM91.25 216.359C91.25 216.391 91.25 216.125 91.25 215.562C91.25 214.969 91.1719 214.234 91.0156 213.359C90.8906 212.453 90.6562 211.469 90.3125 210.406C90 209.344 89.5156 208.344 88.8594 207.406C88.2031 206.469 87.3438 205.656 86.2812 204.969C85.25 204.25 83.9531 203.812 82.3906 203.656C82.2031 208.812 82.0156 213.953 81.8281 219.078C81.6719 224.203 81.5469 229.344 81.4531 234.5C82.5781 234.094 83.5781 233.516 84.4531 232.766C85.3594 232.016 86.1406 231.188 86.7969 230.281C87.4844 229.344 88.0625 228.359 88.5312 227.328C89 226.266 89.4062 225.219 89.75 224.188C90.5312 221.781 91.0312 219.172 91.25 216.359ZM88.625 247.438C88.5625 245.906 88.25 244.516 87.6875 243.266C87.4375 242.734 87.1406 242.203 86.7969 241.672C86.4531 241.109 86.0156 240.609 85.4844 240.172C84.9844 239.703 84.3906 239.312 83.7031 239C83.0156 238.656 82.2344 238.406 81.3594 238.25C81.2656 241.531 81.1875 244.797 81.125 248.047C81.0625 251.266 81.0312 254.516 81.0312 257.797C81.9688 257.453 82.7969 257.047 83.5156 256.578C84.2344 256.078 84.8594 255.562 85.3906 255.031C85.9219 254.469 86.3594 253.891 86.7031 253.297C87.0781 252.703 87.3906 252.125 87.6406 251.562C88.2031 250.25 88.5312 248.875 88.625 247.438ZM132.172 215.75C132.172 217.844 131.969 219.953 131.562 222.078C131.188 224.172 130.562 226.203 129.688 228.172C128.812 230.109 127.688 231.938 126.312 233.656C124.938 235.344 123.25 236.844 121.25 238.156C123 242.625 124.922 246.922 127.016 251.047C129.141 255.141 131.5 259.094 134.094 262.906L122.375 263.562L114.406 240.922C114.531 244.734 114.688 248.516 114.875 252.266C115.062 256.016 115.297 259.719 115.578 263.375H104.141C104.641 256.281 105 249.188 105.219 242.094C105.469 235 105.594 227.859 105.594 220.672C105.594 216.516 105.562 212.375 105.5 208.25C105.438 204.094 105.312 199.906 105.125 195.688C106.781 195.188 108.453 194.859 110.141 194.703C111.859 194.547 113.312 194.469 114.5 194.469C115.344 194.469 116.359 194.562 117.547 194.75C118.766 194.906 120.031 195.25 121.344 195.781C122.656 196.312 123.953 197.062 125.234 198.031C126.547 199 127.703 200.281 128.703 201.875C129.734 203.438 130.562 205.359 131.188 207.641C131.844 209.891 132.172 212.594 132.172 215.75ZM114.312 233.328C115.406 233.016 116.359 232.562 117.172 231.969C118.016 231.344 118.75 230.641 119.375 229.859C120 229.078 120.516 228.25 120.922 227.375C121.359 226.5 121.719 225.625 122 224.75C122.625 222.719 122.984 220.5 123.078 218.094C123.078 218.031 123.062 217.656 123.031 216.969C123.031 216.25 122.953 215.359 122.797 214.297C122.641 213.234 122.406 212.078 122.094 210.828C121.812 209.578 121.391 208.375 120.828 207.219C120.266 206.031 119.547 204.984 118.672 204.078C117.797 203.172 116.734 202.531 115.484 202.156C115.109 207.062 114.812 211.953 114.594 216.828C114.406 221.672 114.312 226.562 114.312 231.5V233.328ZM155.797 262.344C154.547 262.281 153.297 262.234 152.047 262.203C150.797 262.172 149.547 262.156 148.297 262.156C146.234 262.156 144.172 262.203 142.109 262.297C140.047 262.359 137.984 262.469 135.922 262.625L136.016 252.547C136.734 252.641 137.453 252.719 138.172 252.781C138.891 252.812 139.609 252.859 140.328 252.922C140.516 248.078 140.688 243.266 140.844 238.484C141.031 233.672 141.125 228.859 141.125 224.047C141.125 220.828 141.078 217.656 140.984 214.531C140.891 211.375 140.797 208.203 140.703 205.016C139.891 205.016 139.062 205.031 138.219 205.062C137.375 205.094 136.516 205.141 135.641 205.203L135.734 195.406C138.141 195.562 140.547 195.688 142.953 195.781C145.359 195.844 147.781 195.875 150.219 195.875C151.094 195.875 151.969 195.875 152.844 195.875C153.719 195.875 154.609 195.844 155.516 195.781L155.234 205.109C154.516 205.109 153.797 205.094 153.078 205.062C152.391 205.031 151.688 205.016 150.969 205.016C150.531 210.641 150.219 216.234 150.031 221.797C149.844 227.328 149.75 232.906 149.75 238.531C149.75 243.438 149.844 248.328 150.031 253.203C151.031 253.203 152.047 253.188 153.078 253.156C154.141 253.125 155.203 253.078 156.266 253.016L155.797 262.344ZM194.516 195.406C194.109 201.688 193.797 207.922 193.578 214.109C193.359 220.266 193.25 226.453 193.25 232.672C193.25 237.516 193.312 242.297 193.438 247.016C193.594 251.734 193.844 256.484 194.188 261.266L184.719 260.984C183.469 256.922 182.234 252.891 181.016 248.891C179.828 244.859 178.641 240.859 177.453 236.891C176.266 232.922 175.047 228.969 173.797 225.031C172.578 221.094 171.312 217.172 170 213.266C170.094 221.422 170.234 229.562 170.422 237.688C170.641 245.781 171.016 253.859 171.547 261.922L160.719 261.828C161.094 251.859 161.281 241.844 161.281 231.781C161.281 225.594 161.219 219.469 161.094 213.406C160.969 207.344 160.781 201.25 160.531 195.125L173.656 195.406C175.25 202.281 176.953 209.266 178.766 216.359C180.578 223.453 182.5 230.453 184.531 237.359C184.312 230.297 183.984 223.234 183.547 216.172C183.141 209.078 182.688 202.125 182.188 195.312L194.516 195.406ZM226.766 261.828C225.547 262.391 224.344 262.812 223.156 263.094C221.969 263.406 220.906 263.641 219.969 263.797C218.875 263.953 217.812 264.047 216.781 264.078C215.656 264.078 214.438 263.875 213.125 263.469C211.844 263.062 210.547 262.375 209.234 261.406C207.922 260.406 206.656 259.062 205.438 257.375C204.219 255.656 203.141 253.516 202.203 250.953C201.266 248.359 200.516 245.266 199.953 241.672C199.391 238.078 199.109 233.891 199.109 229.109C199.109 224.328 199.438 220.156 200.094 216.594C200.781 213.031 201.656 209.984 202.719 207.453C203.812 204.891 205.031 202.797 206.375 201.172C207.75 199.516 209.141 198.219 210.547 197.281C211.953 196.312 213.312 195.656 214.625 195.312C215.969 194.938 217.125 194.75 218.094 194.75C219 194.781 219.891 194.875 220.766 195.031C221.516 195.188 222.297 195.422 223.109 195.734C223.953 196.047 224.688 196.484 225.312 197.047L224.375 206.469C223.5 206.031 222.672 205.719 221.891 205.531C221.141 205.312 220.422 205.203 219.734 205.203C218.422 205.203 217.25 205.562 216.219 206.281C215.219 206.969 214.344 207.891 213.594 209.047C212.875 210.203 212.25 211.516 211.719 212.984C211.219 214.453 210.812 215.953 210.5 217.484C209.719 221.078 209.281 225.172 209.188 229.766C209.281 234.328 209.734 238.391 210.547 241.953C210.891 243.484 211.312 244.984 211.812 246.453C212.344 247.891 212.984 249.188 213.734 250.344C214.484 251.469 215.359 252.375 216.359 253.062C217.391 253.75 218.578 254.094 219.922 254.094C221.391 254.094 223.094 253.578 225.031 252.547L226.766 261.828ZM249.359 263.375C249.203 261.219 249.047 259.047 248.891 256.859C248.766 254.672 248.609 252.469 248.422 250.25C247.047 250.156 245.719 250.062 244.438 249.969C243.156 249.875 241.859 249.828 240.547 249.828H239.938C239.781 252.078 239.641 254.297 239.516 256.484C239.391 258.672 239.281 260.844 239.188 263L227.469 262.812C229.406 251.656 231.156 240.531 232.719 229.438C234.281 218.344 235.609 207.156 236.703 195.875L250.812 196.109C252 207.266 253.422 218.359 255.078 229.391C256.766 240.391 258.734 251.469 260.984 262.625L249.359 263.375ZM243.875 207.688C243.25 213.438 242.656 219.172 242.094 224.891C241.531 230.609 241.016 236.375 240.547 242.188C241.203 242.25 241.875 242.281 242.562 242.281C243.25 242.281 243.953 242.281 244.672 242.281H247.719C247.188 236.469 246.594 230.703 245.938 224.984C245.281 219.266 244.594 213.5 243.875 207.688ZM291.547 215.75C291.547 217.844 291.344 219.953 290.938 222.078C290.562 224.172 289.938 226.203 289.062 228.172C288.188 230.109 287.062 231.938 285.688 233.656C284.312 235.344 282.625 236.844 280.625 238.156C282.375 242.625 284.297 246.922 286.391 251.047C288.516 255.141 290.875 259.094 293.469 262.906L281.75 263.562L273.781 240.922C273.906 244.734 274.062 248.516 274.25 252.266C274.438 256.016 274.672 259.719 274.953 263.375H263.516C264.016 256.281 264.375 249.188 264.594 242.094C264.844 235 264.969 227.859 264.969 220.672C264.969 216.516 264.938 212.375 264.875 208.25C264.812 204.094 264.688 199.906 264.5 195.688C266.156 195.188 267.828 194.859 269.516 194.703C271.234 194.547 272.688 194.469 273.875 194.469C274.719 194.469 275.734 194.562 276.922 194.75C278.141 194.906 279.406 195.25 280.719 195.781C282.031 196.312 283.328 197.062 284.609 198.031C285.922 199 287.078 200.281 288.078 201.875C289.109 203.438 289.938 205.359 290.562 207.641C291.219 209.891 291.547 212.594 291.547 215.75ZM273.688 233.328C274.781 233.016 275.734 232.562 276.547 231.969C277.391 231.344 278.125 230.641 278.75 229.859C279.375 229.078 279.891 228.25 280.297 227.375C280.734 226.5 281.094 225.625 281.375 224.75C282 222.719 282.359 220.5 282.453 218.094C282.453 218.031 282.438 217.656 282.406 216.969C282.406 216.25 282.328 215.359 282.172 214.297C282.016 213.234 281.781 212.078 281.469 210.828C281.188 209.578 280.766 208.375 280.203 207.219C279.641 206.031 278.922 204.984 278.047 204.078C277.172 203.172 276.109 202.531 274.859 202.156C274.484 207.062 274.188 211.953 273.969 216.828C273.781 221.672 273.688 226.562 273.688 231.5V233.328Z" fill="white"/>
</g>
<g filter="url(#filter2_d)">
<path d="M123.125 113.672C120.875 124.828 118.906 135.922 117.219 146.953C115.562 157.953 114.141 169.031 112.953 180.188L98.8438 180.375C97.75 169.125 96.4219 157.953 94.8594 146.859C93.2969 135.766 91.5469 124.641 89.6094 113.484L101.328 113.297C101.828 122.672 102.484 131.938 103.297 141.094C104.109 150.25 105.016 159.438 106.016 168.656C107.234 159.344 108.312 150.062 109.25 140.812C110.188 131.531 110.938 122.219 111.5 112.875L123.125 113.672ZM144.5 180.375C144.344 178.219 144.188 176.047 144.031 173.859C143.906 171.672 143.75 169.469 143.562 167.25C142.188 167.156 140.859 167.062 139.578 166.969C138.297 166.875 137 166.828 135.688 166.828H135.078C134.922 169.078 134.781 171.297 134.656 173.484C134.531 175.672 134.422 177.844 134.328 180L122.609 179.812C124.547 168.656 126.297 157.531 127.859 146.438C129.422 135.344 130.75 124.156 131.844 112.875L145.953 113.109C147.141 124.266 148.562 135.359 150.219 146.391C151.906 157.391 153.875 168.469 156.125 179.625L144.5 180.375ZM139.016 124.688C138.391 130.438 137.797 136.172 137.234 141.891C136.672 147.609 136.156 153.375 135.688 159.188C136.344 159.25 137.016 159.281 137.703 159.281C138.391 159.281 139.094 159.281 139.812 159.281H142.859C142.328 153.469 141.734 147.703 141.078 141.984C140.422 136.266 139.734 130.5 139.016 124.688ZM192.359 180.094C192.453 175.312 192.562 170.453 192.688 165.516C192.719 163.422 192.75 161.203 192.781 158.859C192.844 156.516 192.891 154.141 192.922 151.734C192.953 149.328 192.969 146.922 192.969 144.516C193 142.109 193.016 139.797 193.016 137.578C193.016 136.109 193.016 134.719 193.016 133.406C193.016 132.062 192.984 130.797 192.922 129.609C192.547 131.922 192.062 134.906 191.469 138.562C190.906 142.188 190.312 146.203 189.688 150.609C189.062 154.984 188.438 159.625 187.812 164.531C187.219 169.438 186.688 174.312 186.219 179.156L177.312 178.922C176.562 174.047 175.828 169.25 175.109 164.531C174.422 159.812 173.75 155.328 173.094 151.078C172.469 146.828 171.891 142.891 171.359 139.266C170.828 135.641 170.375 132.484 170 129.797V146.109C170 149.484 170.016 152.891 170.047 156.328C170.078 159.734 170.109 162.953 170.141 165.984C170.203 169.016 170.281 171.75 170.375 174.188C170.469 176.594 170.594 178.469 170.75 179.812L158 180.562C158.469 177.906 158.844 174.922 159.125 171.609C159.438 168.297 159.672 164.828 159.828 161.203C160.016 157.578 160.141 153.891 160.203 150.141C160.266 146.391 160.297 142.75 160.297 139.219C160.297 135.594 160.266 132.203 160.203 129.047C160.172 125.891 160.125 123.125 160.062 120.75C159.969 117.969 159.891 115.422 159.828 113.109C160.828 113.266 161.875 113.406 162.969 113.531C164.062 113.625 165.141 113.703 166.203 113.766C167.266 113.828 168.297 113.875 169.297 113.906C170.297 113.938 171.203 113.953 172.016 113.953C172.547 113.953 173.031 113.953 173.469 113.953C173.938 113.953 174.344 113.938 174.688 113.906C175.062 113.906 175.391 113.891 175.672 113.859C177.172 124.234 178.438 132.984 179.469 140.109C180.5 147.234 181.312 152.656 181.906 156.375C182.25 154 182.578 151.562 182.891 149.062C183.234 146.531 183.547 144.031 183.828 141.562C184.109 139.094 184.359 136.688 184.578 134.344C184.828 131.969 185.047 129.734 185.234 127.641C185.672 122.703 186.062 117.922 186.406 113.297C187.094 113.359 187.844 113.422 188.656 113.484C189.375 113.547 190.219 113.594 191.188 113.625C192.188 113.656 193.281 113.672 194.469 113.672C195.656 113.672 196.938 113.656 198.312 113.625C199.688 113.562 201.125 113.453 202.625 113.297C202.25 124.984 202.062 135.094 202.062 143.625C202.062 149.906 202.125 155.312 202.25 159.844C202.406 164.375 202.562 168.125 202.719 171.094C202.906 174.594 203.141 177.5 203.422 179.812L192.359 180.094ZM240.969 147.188C240.969 153.469 240.531 158.797 239.656 163.172C238.812 167.547 237.656 171.109 236.188 173.859C234.719 176.578 232.984 178.562 230.984 179.812C228.984 181.031 226.844 181.641 224.562 181.641C222.281 181.641 220.141 181.062 218.141 179.906C216.141 178.719 214.391 176.781 212.891 174.094C211.391 171.406 210.203 167.859 209.328 163.453C208.484 159.047 208.062 153.625 208.062 147.188C208.062 140.719 208.484 135.234 209.328 130.734C210.203 126.203 211.391 122.531 212.891 119.719C214.391 116.875 216.141 114.828 218.141 113.578C220.141 112.297 222.281 111.656 224.562 111.656C226.844 111.656 228.984 112.281 230.984 113.531C232.984 114.75 234.719 116.766 236.188 119.578C237.656 122.391 238.812 126.062 239.656 130.594C240.531 135.094 240.969 140.625 240.969 147.188ZM230.516 147.188C230.516 142.281 230.359 138.141 230.047 134.766C229.734 131.391 229.297 128.656 228.734 126.562C228.203 124.438 227.578 122.906 226.859 121.969C226.141 121.031 225.375 120.562 224.562 120.562C223.719 120.562 222.922 121.047 222.172 122.016C221.453 122.953 220.812 124.484 220.25 126.609C219.719 128.703 219.297 131.453 218.984 134.859C218.672 138.234 218.516 142.344 218.516 147.188C218.516 152 218.672 156.047 218.984 159.328C219.297 162.578 219.719 165.203 220.25 167.203C220.812 169.172 221.453 170.578 222.172 171.422C222.922 172.266 223.719 172.688 224.562 172.688C225.375 172.688 226.141 172.25 226.859 171.375C227.578 170.469 228.203 169.016 228.734 167.016C229.297 164.984 229.734 162.344 230.047 159.094C230.359 155.844 230.516 151.875 230.516 147.188ZM269.75 163.406C269.75 165.875 269.484 168.047 268.953 169.922C268.453 171.766 267.781 173.359 266.938 174.703C266.125 176.016 265.203 177.109 264.172 177.984C263.141 178.828 262.078 179.5 260.984 180C259.922 180.5 258.891 180.844 257.891 181.031C256.922 181.25 256.078 181.359 255.359 181.359C254.984 181.359 254.469 181.328 253.812 181.266C253.156 181.234 252.406 181.141 251.562 180.984C250.719 180.828 249.781 180.594 248.75 180.281C247.75 180 246.688 179.594 245.562 179.062L246.078 167.25C247.922 168.812 249.562 169.859 251 170.391C252.469 170.922 253.703 171.188 254.703 171.188C256.641 171.188 258.094 170.484 259.062 169.078C260.062 167.672 260.562 165.844 260.562 163.594C260.562 162.094 260.188 160.422 259.438 158.578C258.719 156.703 257.422 154.688 255.547 152.531C254.266 151.031 252.938 149.469 251.562 147.844C250.188 146.219 248.938 144.484 247.812 142.641C246.688 140.797 245.766 138.812 245.047 136.688C244.328 134.562 243.969 132.266 243.969 129.797C243.969 126.672 244.391 123.969 245.234 121.688C246.109 119.406 247.266 117.516 248.703 116.016C250.141 114.516 251.781 113.406 253.625 112.688C255.5 111.938 257.453 111.562 259.484 111.562C261.266 111.562 263.078 111.812 264.922 112.312C266.797 112.781 268.672 113.516 270.547 114.516L269.656 126.328C268.844 125.297 267.984 124.484 267.078 123.891C266.203 123.266 265.344 122.797 264.5 122.484C263.688 122.172 262.922 121.969 262.203 121.875C261.516 121.781 260.938 121.734 260.469 121.734C259.562 121.734 258.719 121.969 257.938 122.438C257.188 122.875 256.531 123.484 255.969 124.266C255.438 125.016 255.016 125.922 254.703 126.984C254.391 128.016 254.234 129.109 254.234 130.266C254.234 132.047 254.609 133.656 255.359 135.094C256.141 136.531 257.109 137.953 258.266 139.359C259.422 140.766 260.656 142.219 261.969 143.719C263.312 145.188 264.562 146.859 265.719 148.734C266.875 150.578 267.828 152.703 268.578 155.109C269.359 157.484 269.75 160.25 269.75 163.406Z" fill="white"/>
</g>
<circle cx="358" cy="53" r="51" fill="#FBCF35" stroke="black" stroke-width="4"/>
<circle cx="291" cy="337" r="51" fill="#8BAE00" stroke="black" stroke-width="4"/>
<circle cx="53" cy="64" r="51" fill="#361CD8"/>
<circle cx="53" cy="64" r="51" fill="#361CD8"/>
<circle cx="53" cy="64" r="51" stroke="black" stroke-width="4"/>
<circle cx="53" cy="377" r="51" fill="#361CD8"/>
<circle cx="53" cy="377" r="51" fill="#D81CAE"/>
<circle cx="53" cy="377" r="51" stroke="black" stroke-width="4"/>
<defs>
<filter id="filter0_d" x="13" y="29" width="336" height="336" filterUnits="userSpaceOnUse" color-interpolation-filters="sRGB">
<feFlood flood-opacity="0" result="BackgroundImageFix"/>
<feColorMatrix in="SourceAlpha" type="matrix" values="0 0 0 0 0 0 0 0 0 0 0 0 0 0 0 0 0 0 127 0"/>
<feMorphology radius="7" operator="dilate" in="SourceAlpha" result="effect1_dropShadow"/>
<feOffset dy="4"/>
<feGaussianBlur stdDeviation="4.5"/>
<feColorMatrix type="matrix" values="0 0 0 0 0 0 0 0 0 0 0 0 0 0 0 0 0 0 0.25 0"/>
<feBlend mode="normal" in2="BackgroundImageFix" result="effect1_dropShadow"/>
<feBlend mode="normal" in="SourceGraphic" in2="effect1_dropShadow" result="shape"/>
</filter>
<filter id="filter1_d" x="64.2031" y="192.469" width="235.266" height="81.9844" filterUnits="userSpaceOnUse" color-interpolation-filters="sRGB">
<feFlood flood-opacity="0" result="BackgroundImageFix"/>
<feColorMatrix in="SourceAlpha" type="matrix" values="0 0 0 0 0 0 0 0 0 0 0 0 0 0 0 0 0 0 127 0"/>
<feOffset dy="4"/>
<feGaussianBlur stdDeviation="3"/>
<feColorMatrix type="matrix" values="0 0 0 0 0 0 0 0 0 0 0 0 0 0 0 0 0 0 0.25 0"/>
<feBlend mode="normal" in2="BackgroundImageFix" result="effect1_dropShadow"/>
<feBlend mode="normal" in="SourceGraphic" in2="effect1_dropShadow" result="shape"/>
</filter>
<filter id="filter2_d" x="83.6094" y="109.562" width="192.938" height="82.0781" filterUnits="userSpaceOnUse" color-interpolation-filters="sRGB">
<feFlood flood-opacity="0" result="BackgroundImageFix"/>
<feColorMatrix in="SourceAlpha" type="matrix" values="0 0 0 0 0 0 0 0 0 0 0 0 0 0 0 0 0 0 127 0"/>
<feOffset dy="4"/>
<feGaussianBlur stdDeviation="3"/>
<feColorMatrix type="matrix" values="0 0 0 0 0 0 0 0 0 0 0 0 0 0 0 0 0 0 0.25 0"/>
<feBlend mode="normal" in2="BackgroundImageFix" result="effect1_dropShadow"/>
<feBlend mode="normal" in="SourceGraphic" in2="effect1_dropShadow" result="shape"/>
</filter>
</defs>
</svg>
