<svg width="375" height="422" viewBox="0 0 375 422" fill="none" xmlns="http://www.w3.org/2000/svg">
<circle cx="365" cy="85" r="51" fill="#FBCF35" stroke="black" stroke-width="4"/>
<circle cx="299" cy="359" r="51" fill="#8BAE00" stroke="black" stroke-width="4"/>
<circle cx="60" cy="96" r="51" fill="#361CD8"/>
<circle cx="60" cy="96" r="51" fill="#361CD8"/>
<circle cx="60" cy="96" r="51" stroke="black" stroke-width="4"/>
<circle cx="7" cy="369" r="51" fill="#361CD8"/>
<circle cx="7" cy="369" r="51" fill="#D81CAE"/>
<circle cx="7" cy="369" r="51" stroke="black" stroke-width="4"/>
<circle cx="188" cy="85" r="83" fill="#D20000" stroke="black" stroke-width="4"/>
<path d="M163.698 101.044C162.878 101.015 162.08 100.993 161.303 100.978C160.542 100.963 159.78 100.956 159.018 100.956C157.875 100.956 156.748 100.971 155.634 101C154.521 101.044 153.371 101.103 152.185 101.176C152.316 98.4512 152.419 95.7559 152.492 93.0898C152.58 90.4092 152.624 87.7065 152.624 84.9819C152.624 82.3745 152.587 79.7891 152.514 77.2256C152.456 74.6475 152.346 72.0547 152.185 69.4473C152.331 69.4619 152.5 69.4692 152.69 69.4692C152.851 69.4839 153.049 69.4912 153.283 69.4912C153.518 69.4912 153.781 69.4912 154.074 69.4912C154.543 69.4912 155.048 69.4839 155.59 69.4692C156.147 69.4399 156.704 69.4033 157.26 69.3594C157.07 71.4688 156.931 73.688 156.843 76.0171C156.77 78.3462 156.718 80.7046 156.689 83.0923C156.674 85.4653 156.66 87.8384 156.645 90.2114C156.645 92.5698 156.623 94.8477 156.579 97.0449C157.78 97.0156 158.945 96.957 160.073 96.8691C161.215 96.7812 162.424 96.6421 163.698 96.4517V101.044ZM180.024 85.6191C180.024 88.5635 179.819 91.061 179.409 93.1118C179.013 95.1626 178.471 96.8325 177.783 98.1216C177.094 99.396 176.281 100.326 175.344 100.912C174.406 101.483 173.403 101.769 172.333 101.769C171.264 101.769 170.261 101.498 169.323 100.956C168.386 100.399 167.565 99.4912 166.862 98.2314C166.159 96.9717 165.603 95.3091 165.192 93.2437C164.797 91.1782 164.599 88.6367 164.599 85.6191C164.599 82.5869 164.797 80.0161 165.192 77.9067C165.603 75.7827 166.159 74.0615 166.862 72.7432C167.565 71.4102 168.386 70.4507 169.323 69.8647C170.261 69.2642 171.264 68.9639 172.333 68.9639C173.403 68.9639 174.406 69.2568 175.344 69.8428C176.281 70.4141 177.094 71.3589 177.783 72.6772C178.471 73.9956 179.013 75.7168 179.409 77.8408C179.819 79.9502 180.024 82.543 180.024 85.6191ZM175.124 85.6191C175.124 83.3193 175.051 81.3784 174.904 79.7964C174.758 78.2144 174.553 76.9326 174.289 75.9512C174.04 74.9551 173.747 74.2373 173.41 73.7979C173.073 73.3584 172.714 73.1387 172.333 73.1387C171.938 73.1387 171.564 73.3657 171.213 73.8198C170.876 74.2593 170.576 74.9771 170.312 75.9731C170.063 76.9546 169.865 78.2437 169.719 79.8403C169.572 81.4224 169.499 83.3486 169.499 85.6191C169.499 87.875 169.572 89.772 169.719 91.3101C169.865 92.8335 170.063 94.064 170.312 95.0015C170.576 95.9243 170.876 96.5835 171.213 96.979C171.564 97.3745 171.938 97.5723 172.333 97.5723C172.714 97.5723 173.073 97.3672 173.41 96.957C173.747 96.5322 174.04 95.8511 174.289 94.9136C174.553 93.9614 174.758 92.7236 174.904 91.2002C175.051 89.6768 175.124 87.8164 175.124 85.6191ZM194.877 85.2456C194.804 85.7729 194.724 86.3735 194.636 87.0474C194.562 87.7212 194.497 88.4463 194.438 89.2227C194.379 89.9844 194.328 90.79 194.284 91.6396C194.255 92.4746 194.24 93.3169 194.24 94.1665C194.24 94.3569 194.248 94.6353 194.262 95.0015C194.292 95.353 194.321 95.7485 194.35 96.188C194.379 96.6128 194.409 97.0596 194.438 97.5283C194.482 97.9824 194.519 98.4146 194.548 98.8247C194.592 99.2202 194.628 99.5645 194.658 99.8574C194.687 100.15 194.716 100.348 194.746 100.451C194.174 100.714 193.61 100.912 193.054 101.044C192.497 101.19 191.999 101.3 191.56 101.374C191.047 101.447 190.549 101.491 190.065 101.505C189.538 101.505 188.967 101.41 188.352 101.22C187.751 101.029 187.143 100.707 186.528 100.253C185.913 99.7842 185.319 99.1543 184.748 98.3633C184.177 97.5576 183.671 96.5542 183.232 95.353C182.792 94.1372 182.441 92.687 182.177 91.0024C181.914 89.3179 181.782 87.355 181.782 85.1138C181.782 82.8726 181.936 80.917 182.243 79.2471C182.565 77.5771 182.976 76.1489 183.474 74.9624C183.986 73.7612 184.558 72.7798 185.188 72.0181C185.832 71.2417 186.484 70.6338 187.143 70.1943C187.802 69.7402 188.439 69.4326 189.055 69.2715C189.685 69.0957 190.227 69.0078 190.681 69.0078C191.105 69.0225 191.523 69.0664 191.933 69.1396C192.285 69.2129 192.651 69.3228 193.032 69.4692C193.427 69.6157 193.771 69.8208 194.064 70.0845L193.625 74.501C193.215 74.2959 192.827 74.1494 192.46 74.0615C192.109 73.959 191.772 73.9077 191.45 73.9077C190.834 73.9077 190.285 74.0762 189.802 74.4131C189.333 74.7354 188.923 75.1675 188.571 75.7095C188.234 76.2515 187.941 76.8667 187.692 77.5552C187.458 78.2437 187.268 78.9468 187.121 79.6646C186.755 81.3491 186.55 83.2681 186.506 85.4214C186.55 87.2817 186.718 88.9883 187.011 90.541C187.143 91.2002 187.304 91.8594 187.495 92.5186C187.7 93.1777 187.941 93.793 188.22 94.3643C188.513 94.9209 188.85 95.4043 189.23 95.8145C189.626 96.2246 190.08 96.5103 190.593 96.6714C190.563 94.7671 190.468 92.8774 190.307 91.0024C190.161 89.1274 189.941 87.2378 189.648 85.3335L194.877 85.2456ZM205.82 100.692C205.234 100.663 204.648 100.641 204.062 100.626C203.476 100.612 202.89 100.604 202.304 100.604C201.337 100.604 200.371 100.626 199.404 100.67C198.437 100.7 197.47 100.751 196.503 100.824L196.547 96.1001C196.884 96.144 197.221 96.1807 197.558 96.21C197.895 96.2246 198.232 96.2466 198.569 96.2759C198.657 94.0054 198.737 91.7495 198.811 89.5083C198.898 87.2524 198.942 84.9966 198.942 82.7407C198.942 81.2319 198.92 79.7451 198.876 78.2803C198.833 76.8008 198.789 75.314 198.745 73.8198C198.364 73.8198 197.976 73.8271 197.58 73.8418C197.185 73.8564 196.782 73.8784 196.372 73.9077L196.416 69.3154C197.543 69.3887 198.671 69.4473 199.799 69.4912C200.927 69.5205 202.062 69.5352 203.205 69.5352C203.615 69.5352 204.025 69.5352 204.436 69.5352C204.846 69.5352 205.263 69.5205 205.688 69.4912L205.556 73.8638C205.219 73.8638 204.882 73.8564 204.545 73.8418C204.223 73.8271 203.894 73.8198 203.557 73.8198C203.352 76.4565 203.205 79.0786 203.117 81.686C203.029 84.2788 202.985 86.8936 202.985 89.5303C202.985 91.8301 203.029 94.1226 203.117 96.4077C203.586 96.4077 204.062 96.4004 204.545 96.3857C205.043 96.3711 205.542 96.3491 206.04 96.3198L205.82 100.692ZM223.969 69.3154C223.779 72.2598 223.632 75.1821 223.53 78.0825C223.427 80.9683 223.376 83.8687 223.376 86.7837C223.376 89.0542 223.405 91.2954 223.464 93.5073C223.537 95.7192 223.654 97.9458 223.815 100.187L219.377 100.055C218.791 98.1509 218.212 96.2612 217.641 94.3862C217.084 92.4966 216.528 90.6216 215.971 88.7612C215.415 86.9009 214.843 85.0479 214.257 83.2021C213.686 81.3564 213.093 79.5181 212.478 77.687C212.521 81.5103 212.587 85.3262 212.675 89.1348C212.778 92.9287 212.954 96.7153 213.203 100.495L208.127 100.451C208.303 95.7778 208.391 91.083 208.391 86.3662C208.391 83.4658 208.361 80.5947 208.303 77.7529C208.244 74.9111 208.156 72.0547 208.039 69.1836L214.191 69.3154C214.938 72.5381 215.737 75.812 216.586 79.1372C217.436 82.4624 218.337 85.7437 219.289 88.981C219.187 85.6704 219.033 82.3599 218.828 79.0493C218.637 75.7241 218.425 72.4648 218.19 69.2715L223.969 69.3154Z" fill="white"/>
</svg>
