<svg width="375" height="424" viewBox="0 0 375 424" fill="none" xmlns="http://www.w3.org/2000/svg">
<circle cx="7" cy="371" r="51" fill="#361CD8"/>
<circle cx="7" cy="371" r="51" fill="#D81CAE"/>
<circle cx="7" cy="371" r="51" stroke="black" stroke-width="4"/>
<circle cx="365" cy="87" r="51" fill="#FBCF35" stroke="black" stroke-width="4"/>
<circle cx="60" cy="98" r="51" fill="#361CD8"/>
<circle cx="60" cy="98" r="51" fill="#361CD8"/>
<circle cx="60" cy="98" r="51" stroke="black" stroke-width="4"/>
<circle cx="195" cy="85" r="83" fill="#D20000" stroke="black" stroke-width="4"/>
<path d="M153.779 78.8516C153.779 79.833 153.684 80.8218 153.494 81.8179C153.318 82.7993 153.025 83.7515 152.615 84.6743C152.205 85.5825 151.677 86.4395 151.033 87.2451C150.388 88.0361 149.597 88.7393 148.66 89.3545C149.48 91.4492 150.381 93.4634 151.362 95.397C152.358 97.3159 153.464 99.1689 154.68 100.956L149.187 101.264L145.452 90.6509C145.51 92.438 145.583 94.2104 145.671 95.9683C145.759 97.7261 145.869 99.4619 146.001 101.176H140.64C140.874 97.8506 141.042 94.5254 141.145 91.2002C141.262 87.875 141.321 84.5278 141.321 81.1587C141.321 79.2104 141.306 77.2695 141.277 75.3359C141.248 73.3877 141.189 71.4248 141.101 69.4473C141.877 69.2129 142.661 69.0591 143.452 68.9858C144.258 68.9126 144.939 68.876 145.496 68.876C145.891 68.876 146.367 68.9199 146.924 69.0078C147.495 69.0811 148.088 69.2422 148.704 69.4912C149.319 69.7402 149.927 70.0918 150.527 70.5459C151.143 71 151.685 71.6006 152.153 72.3477C152.637 73.0801 153.025 73.981 153.318 75.0503C153.625 76.105 153.779 77.3721 153.779 78.8516ZM145.408 87.0913C145.92 86.9448 146.367 86.7324 146.748 86.4541C147.144 86.1611 147.488 85.8315 147.781 85.4653C148.074 85.0991 148.315 84.7109 148.506 84.3008C148.711 83.8906 148.879 83.4805 149.011 83.0703C149.304 82.1182 149.473 81.0781 149.517 79.9502C149.517 79.9209 149.509 79.7451 149.495 79.4229C149.495 79.0859 149.458 78.6685 149.385 78.1704C149.312 77.6724 149.202 77.1304 149.055 76.5444C148.923 75.9585 148.726 75.3945 148.462 74.8525C148.198 74.2959 147.861 73.8052 147.451 73.3804C147.041 72.9556 146.543 72.6553 145.957 72.4795C145.781 74.7793 145.642 77.0718 145.54 79.3569C145.452 81.6274 145.408 83.9199 145.408 86.2344V87.0913ZM165.073 89.2446C164.619 89.2153 164.158 89.1934 163.689 89.1787C163.22 89.1641 162.751 89.1567 162.283 89.1567C162.019 89.1567 161.741 89.1641 161.448 89.1787C161.169 89.1934 160.891 89.2007 160.613 89.2007L160.525 97.0449C161.726 97.0156 162.891 96.957 164.019 96.8691C165.161 96.7812 166.37 96.6421 167.644 96.4517V101.044C166.824 101.015 166.025 100.993 165.249 100.978C164.487 100.963 163.726 100.956 162.964 100.956C161.821 100.956 160.693 100.971 159.58 101C158.467 101.044 157.317 101.103 156.13 101.176C156.262 98.4512 156.365 95.7559 156.438 93.0898C156.526 90.4092 156.57 87.7065 156.57 84.9819C156.57 82.3745 156.533 79.7891 156.46 77.2256C156.401 74.6475 156.292 72.0547 156.13 69.4473C157.859 69.5791 159.507 69.645 161.074 69.645C162.07 69.645 163.059 69.623 164.041 69.5791C165.037 69.5205 166.099 69.4473 167.227 69.3594V74.4131C166.318 74.252 165.417 74.1274 164.524 74.0396C163.645 73.9517 162.766 73.9077 161.887 73.9077H161.03C160.884 75.7388 160.781 77.5625 160.723 79.3789C160.679 81.1953 160.642 83.019 160.613 84.8501C160.994 84.8794 161.375 84.894 161.755 84.894C162.151 84.894 162.554 84.894 162.964 84.894C163.301 84.894 163.645 84.894 163.997 84.894C164.348 84.894 164.707 84.8794 165.073 84.8501V89.2446ZM181.904 85.2456C181.831 85.7729 181.75 86.3735 181.663 87.0474C181.589 87.7212 181.523 88.4463 181.465 89.2227C181.406 89.9844 181.355 90.79 181.311 91.6396C181.282 92.4746 181.267 93.3169 181.267 94.1665C181.267 94.3569 181.274 94.6353 181.289 95.0015C181.318 95.353 181.348 95.7485 181.377 96.188C181.406 96.6128 181.436 97.0596 181.465 97.5283C181.509 97.9824 181.545 98.4146 181.575 98.8247C181.619 99.2202 181.655 99.5645 181.685 99.8574C181.714 100.15 181.743 100.348 181.772 100.451C181.201 100.714 180.637 100.912 180.081 101.044C179.524 101.19 179.026 101.3 178.586 101.374C178.074 101.447 177.576 101.491 177.092 101.505C176.565 101.505 175.994 101.41 175.378 101.22C174.778 101.029 174.17 100.707 173.555 100.253C172.939 99.7842 172.346 99.1543 171.775 98.3633C171.204 97.5576 170.698 96.5542 170.259 95.353C169.819 94.1372 169.468 92.687 169.204 91.0024C168.94 89.3179 168.809 87.355 168.809 85.1138C168.809 82.8726 168.962 80.917 169.27 79.2471C169.592 77.5771 170.002 76.1489 170.5 74.9624C171.013 73.7612 171.584 72.7798 172.214 72.0181C172.859 71.2417 173.511 70.6338 174.17 70.1943C174.829 69.7402 175.466 69.4326 176.082 69.2715C176.711 69.0957 177.253 69.0078 177.708 69.0078C178.132 69.0225 178.55 69.0664 178.96 69.1396C179.312 69.2129 179.678 69.3228 180.059 69.4692C180.454 69.6157 180.798 69.8208 181.091 70.0845L180.652 74.501C180.242 74.2959 179.854 74.1494 179.487 74.0615C179.136 73.959 178.799 73.9077 178.477 73.9077C177.861 73.9077 177.312 74.0762 176.829 74.4131C176.36 74.7354 175.95 75.1675 175.598 75.7095C175.261 76.2515 174.968 76.8667 174.719 77.5552C174.485 78.2437 174.294 78.9468 174.148 79.6646C173.782 81.3491 173.577 83.2681 173.533 85.4214C173.577 87.2817 173.745 88.9883 174.038 90.541C174.17 91.2002 174.331 91.8594 174.521 92.5186C174.727 93.1777 174.968 93.793 175.247 94.3643C175.54 94.9209 175.876 95.4043 176.257 95.8145C176.653 96.2246 177.107 96.5103 177.62 96.6714C177.59 94.7671 177.495 92.8774 177.334 91.0024C177.188 89.1274 176.968 87.2378 176.675 85.3335L181.904 85.2456ZM192.847 100.692C192.261 100.663 191.675 100.641 191.089 100.626C190.503 100.612 189.917 100.604 189.331 100.604C188.364 100.604 187.397 100.626 186.431 100.67C185.464 100.7 184.497 100.751 183.53 100.824L183.574 96.1001C183.911 96.144 184.248 96.1807 184.585 96.21C184.922 96.2246 185.259 96.2466 185.596 96.2759C185.684 94.0054 185.764 91.7495 185.837 89.5083C185.925 87.2524 185.969 84.9966 185.969 82.7407C185.969 81.2319 185.947 79.7451 185.903 78.2803C185.859 76.8008 185.815 75.314 185.771 73.8198C185.391 73.8198 185.002 73.8271 184.607 73.8418C184.211 73.8564 183.809 73.8784 183.398 73.9077L183.442 69.3154C184.57 69.3887 185.698 69.4473 186.826 69.4912C187.954 69.5205 189.089 69.5352 190.232 69.5352C190.642 69.5352 191.052 69.5352 191.462 69.5352C191.873 69.5352 192.29 69.5205 192.715 69.4912L192.583 73.8638C192.246 73.8638 191.909 73.8564 191.572 73.8418C191.25 73.8271 190.92 73.8198 190.583 73.8198C190.378 76.4565 190.232 79.0786 190.144 81.686C190.056 84.2788 190.012 86.8936 190.012 89.5303C190.012 91.8301 190.056 94.1226 190.144 96.4077C190.613 96.4077 191.089 96.4004 191.572 96.3857C192.07 96.3711 192.568 96.3491 193.066 96.3198L192.847 100.692ZM206.206 93.2217C206.206 94.3789 206.082 95.397 205.833 96.2759C205.598 97.1401 205.283 97.8872 204.888 98.5171C204.507 99.1323 204.075 99.645 203.591 100.055C203.108 100.451 202.61 100.766 202.097 101C201.599 101.234 201.116 101.396 200.647 101.483C200.193 101.586 199.797 101.637 199.46 101.637C199.285 101.637 199.043 101.623 198.735 101.593C198.428 101.579 198.076 101.535 197.681 101.461C197.285 101.388 196.846 101.278 196.362 101.132C195.894 101 195.396 100.81 194.868 100.561L195.11 95.0234C195.974 95.7559 196.743 96.2466 197.417 96.4956C198.105 96.7446 198.684 96.8691 199.153 96.8691C200.061 96.8691 200.742 96.5396 201.196 95.8804C201.665 95.2212 201.899 94.3643 201.899 93.3096C201.899 92.6064 201.724 91.8228 201.372 90.9585C201.035 90.0796 200.427 89.1348 199.548 88.124C198.948 87.4209 198.325 86.6885 197.681 85.9268C197.036 85.165 196.45 84.3521 195.923 83.4878C195.396 82.6235 194.963 81.6934 194.626 80.6973C194.29 79.7012 194.121 78.6245 194.121 77.4673C194.121 76.0024 194.319 74.7354 194.714 73.666C195.125 72.5967 195.667 71.7104 196.34 71.0073C197.014 70.3042 197.783 69.7842 198.647 69.4473C199.526 69.0957 200.442 68.9199 201.394 68.9199C202.229 68.9199 203.079 69.0371 203.943 69.2715C204.822 69.4912 205.701 69.8354 206.58 70.3042L206.162 75.8413C205.781 75.3579 205.378 74.9771 204.954 74.6987C204.543 74.4058 204.141 74.186 203.745 74.0396C203.364 73.8931 203.005 73.7979 202.668 73.7539C202.346 73.71 202.075 73.688 201.855 73.688C201.431 73.688 201.035 73.7979 200.669 74.0176C200.317 74.2227 200.01 74.5083 199.746 74.8745C199.497 75.2261 199.299 75.6509 199.153 76.1489C199.006 76.6323 198.933 77.145 198.933 77.687C198.933 78.522 199.109 79.2764 199.46 79.9502C199.827 80.624 200.281 81.2905 200.823 81.9497C201.365 82.6089 201.943 83.29 202.559 83.9932C203.188 84.6816 203.774 85.4653 204.316 86.3442C204.858 87.2085 205.305 88.2046 205.657 89.3325C206.023 90.4458 206.206 91.7422 206.206 93.2217ZM219.565 74.0396C219.097 74.0103 218.555 73.9883 217.939 73.9736C217.339 73.959 216.694 73.9517 216.006 73.9517C215.903 75.314 215.815 76.7275 215.742 78.1924C215.684 79.6426 215.632 81.1221 215.588 82.6309C215.544 84.125 215.515 85.6338 215.5 87.1572C215.486 88.666 215.479 90.1602 215.479 91.6396C215.479 93.3242 215.486 94.9575 215.5 96.5396C215.53 98.1069 215.581 99.623 215.654 101.088H210.974C211.106 98.5977 211.208 95.9463 211.282 93.1338C211.355 90.3213 211.392 87.4868 211.392 84.6304C211.392 82.77 211.37 80.9536 211.326 79.1812C211.282 77.4087 211.238 75.6802 211.194 73.9956C210.491 73.9956 209.824 74.0029 209.194 74.0176C208.564 74.0322 208 74.0542 207.502 74.0835L207.546 69.4912C208.074 69.5352 208.667 69.5718 209.326 69.6011C209.985 69.6157 210.674 69.6304 211.392 69.645C212.124 69.6597 212.871 69.6743 213.633 69.689C214.395 69.689 215.142 69.689 215.874 69.689C216.606 69.689 217.295 69.689 217.939 69.689C218.599 69.689 219.185 69.6743 219.697 69.645L219.565 74.0396ZM229.893 101.176C229.819 100.165 229.746 99.147 229.673 98.1216C229.614 97.0962 229.541 96.0635 229.453 95.0234C228.809 94.9795 228.186 94.9355 227.585 94.8916C226.985 94.8477 226.377 94.8257 225.762 94.8257H225.476C225.403 95.8804 225.337 96.9204 225.278 97.9458C225.22 98.9712 225.168 99.9893 225.125 101L219.631 100.912C220.54 95.6826 221.36 90.4678 222.092 85.2676C222.825 80.0674 223.447 74.8232 223.96 69.5352L230.574 69.645C231.13 74.8745 231.797 80.0747 232.573 85.2456C233.364 90.4019 234.287 95.5947 235.342 100.824L229.893 101.176ZM227.322 75.0723C227.029 77.7676 226.75 80.4556 226.487 83.1362C226.223 85.8169 225.981 88.5195 225.762 91.2441C226.069 91.2734 226.384 91.2881 226.707 91.2881C227.029 91.2881 227.358 91.2881 227.695 91.2881H229.124C228.875 88.5635 228.596 85.8608 228.289 83.1802C227.981 80.4995 227.659 77.7969 227.322 75.0723ZM249.668 78.8516C249.668 79.833 249.573 80.8218 249.382 81.8179C249.207 82.7993 248.914 83.7515 248.503 84.6743C248.093 85.5825 247.566 86.4395 246.921 87.2451C246.277 88.0361 245.486 88.7393 244.548 89.3545C245.369 91.4492 246.27 93.4634 247.251 95.397C248.247 97.3159 249.353 99.1689 250.569 100.956L245.076 101.264L241.34 90.6509C241.399 92.438 241.472 94.2104 241.56 95.9683C241.648 97.7261 241.758 99.4619 241.89 101.176H236.528C236.763 97.8506 236.931 94.5254 237.034 91.2002C237.151 87.875 237.209 84.5278 237.209 81.1587C237.209 79.2104 237.195 77.2695 237.166 75.3359C237.136 73.3877 237.078 71.4248 236.99 69.4473C237.766 69.2129 238.55 69.0591 239.341 68.9858C240.146 68.9126 240.828 68.876 241.384 68.876C241.78 68.876 242.256 68.9199 242.812 69.0078C243.384 69.0811 243.977 69.2422 244.592 69.4912C245.208 69.7402 245.815 70.0918 246.416 70.5459C247.031 71 247.573 71.6006 248.042 72.3477C248.525 73.0801 248.914 73.981 249.207 75.0503C249.514 76.105 249.668 77.3721 249.668 78.8516ZM241.296 87.0913C241.809 86.9448 242.256 86.7324 242.637 86.4541C243.032 86.1611 243.376 85.8315 243.669 85.4653C243.962 85.0991 244.204 84.7109 244.395 84.3008C244.6 83.8906 244.768 83.4805 244.9 83.0703C245.193 82.1182 245.361 81.0781 245.405 79.9502C245.405 79.9209 245.398 79.7451 245.383 79.4229C245.383 79.0859 245.347 78.6685 245.273 78.1704C245.2 77.6724 245.09 77.1304 244.944 76.5444C244.812 75.9585 244.614 75.3945 244.351 74.8525C244.087 74.2959 243.75 73.8052 243.34 73.3804C242.93 72.9556 242.432 72.6553 241.846 72.4795C241.67 74.7793 241.531 77.0718 241.428 79.3569C241.34 81.6274 241.296 83.9199 241.296 86.2344V87.0913Z" fill="white"/>
<circle cx="312" cy="367" r="51" fill="#8BAE00" stroke="black" stroke-width="4"/>
</svg>
