<svg width="375" height="425" viewBox="0 0 375 425" fill="none" xmlns="http://www.w3.org/2000/svg">
<circle cx="365" cy="88" r="51" fill="#FBCF35" stroke="black" stroke-width="4"/>
<circle cx="299" cy="362" r="51" fill="#8BAE00" stroke="black" stroke-width="4"/>
<circle cx="60" cy="99" r="51" fill="#361CD8"/>
<circle cx="60" cy="99" r="51" fill="#361CD8"/>
<circle cx="60" cy="99" r="51" stroke="black" stroke-width="4"/>
<circle cx="7" cy="372" r="51" fill="#361CD8"/>
<circle cx="7" cy="372" r="51" fill="#D81CAE"/>
<circle cx="7" cy="372" r="51" stroke="black" stroke-width="4"/>
<circle cx="193" cy="85" r="83" fill="#D20000" stroke="black" stroke-width="4"/>
<path d="M141.408 93.2217C141.408 94.3789 141.284 95.397 141.035 96.2759C140.8 97.1401 140.485 97.8872 140.09 98.5171C139.709 99.1323 139.277 99.645 138.793 100.055C138.31 100.451 137.812 100.766 137.299 101C136.801 101.234 136.318 101.396 135.849 101.483C135.395 101.586 135 101.637 134.663 101.637C134.487 101.637 134.245 101.623 133.938 101.593C133.63 101.579 133.278 101.535 132.883 101.461C132.487 101.388 132.048 101.278 131.564 101.132C131.096 101 130.598 100.81 130.07 100.561L130.312 95.0234C131.176 95.7559 131.945 96.2466 132.619 96.4956C133.308 96.7446 133.886 96.8691 134.355 96.8691C135.263 96.8691 135.944 96.5396 136.398 95.8804C136.867 95.2212 137.102 94.3643 137.102 93.3096C137.102 92.6064 136.926 91.8228 136.574 90.9585C136.237 90.0796 135.629 89.1348 134.75 88.124C134.15 87.4209 133.527 86.6885 132.883 85.9268C132.238 85.165 131.652 84.3521 131.125 83.4878C130.598 82.6235 130.166 81.6934 129.829 80.6973C129.492 79.7012 129.323 78.6245 129.323 77.4673C129.323 76.0024 129.521 74.7354 129.917 73.666C130.327 72.5967 130.869 71.7104 131.542 71.0073C132.216 70.3042 132.985 69.7842 133.85 69.4473C134.729 69.0957 135.644 68.9199 136.596 68.9199C137.431 68.9199 138.281 69.0371 139.145 69.2715C140.024 69.4912 140.903 69.8354 141.782 70.3042L141.364 75.8413C140.983 75.3579 140.581 74.9771 140.156 74.6987C139.746 74.4058 139.343 74.186 138.947 74.0396C138.566 73.8931 138.208 73.7979 137.871 73.7539C137.548 73.71 137.277 73.688 137.058 73.688C136.633 73.688 136.237 73.7979 135.871 74.0176C135.52 74.2227 135.212 74.5083 134.948 74.8745C134.699 75.2261 134.501 75.6509 134.355 76.1489C134.208 76.6323 134.135 77.145 134.135 77.687C134.135 78.522 134.311 79.2764 134.663 79.9502C135.029 80.624 135.483 81.2905 136.025 81.9497C136.567 82.6089 137.146 83.29 137.761 83.9932C138.391 84.6816 138.977 85.4653 139.519 86.3442C140.061 87.2085 140.507 88.2046 140.859 89.3325C141.225 90.4458 141.408 91.7422 141.408 93.2217ZM156.35 69.1836C156.687 72.1719 156.921 75.1968 157.053 78.2583C157.185 81.3052 157.25 84.4912 157.25 87.8164C157.25 88.9443 157.199 90.0649 157.097 91.1782C157.009 92.2769 156.848 93.3315 156.613 94.3423C156.394 95.3384 156.093 96.2686 155.712 97.1328C155.346 97.9824 154.885 98.7222 154.328 99.3521C153.771 99.9673 153.112 100.458 152.351 100.824C151.589 101.176 150.717 101.352 149.736 101.352C148.857 101.352 148.088 101.19 147.429 100.868C146.77 100.531 146.206 100.077 145.737 99.5059C145.268 98.9199 144.873 98.2388 144.55 97.4624C144.243 96.6714 144.001 95.8218 143.825 94.9136C143.649 93.9907 143.525 93.0312 143.452 92.0352C143.378 91.0391 143.342 90.0356 143.342 89.0249C143.342 85.978 143.466 82.8945 143.715 79.7744C143.964 76.6396 144.257 73.395 144.594 70.0405L149.187 70.1284C148.923 73.2778 148.674 76.4565 148.439 79.6646C148.22 82.8726 148.11 86.1758 148.11 89.5742C148.11 90.5557 148.139 91.4858 148.198 92.3647C148.256 93.2437 148.359 94.02 148.505 94.6938C148.652 95.353 148.835 95.8804 149.055 96.2759C149.289 96.6714 149.575 96.8691 149.912 96.8691C150.307 96.8691 150.666 96.5615 150.988 95.9463C151.325 95.3164 151.604 94.4961 151.823 93.4854C152.058 92.46 152.241 91.2954 152.373 89.9917C152.504 88.688 152.57 87.3623 152.57 86.0146C152.57 84.7256 152.556 83.4292 152.526 82.1255C152.512 80.8218 152.482 79.5034 152.438 78.1704C152.395 76.8228 152.336 75.4531 152.263 74.0615C152.189 72.6553 152.094 71.1978 151.977 69.689L156.35 69.1836ZM172.609 85.2456C172.536 85.7729 172.456 86.3735 172.368 87.0474C172.294 87.7212 172.229 88.4463 172.17 89.2227C172.111 89.9844 172.06 90.79 172.016 91.6396C171.987 92.4746 171.972 93.3169 171.972 94.1665C171.972 94.3569 171.979 94.6353 171.994 95.0015C172.023 95.353 172.053 95.7485 172.082 96.188C172.111 96.6128 172.141 97.0596 172.17 97.5283C172.214 97.9824 172.25 98.4146 172.28 98.8247C172.324 99.2202 172.36 99.5645 172.39 99.8574C172.419 100.15 172.448 100.348 172.478 100.451C171.906 100.714 171.342 100.912 170.786 101.044C170.229 101.19 169.731 101.3 169.292 101.374C168.779 101.447 168.281 101.491 167.797 101.505C167.27 101.505 166.699 101.41 166.083 101.22C165.483 101.029 164.875 100.707 164.26 100.253C163.645 99.7842 163.051 99.1543 162.48 98.3633C161.909 97.5576 161.403 96.5542 160.964 95.353C160.524 94.1372 160.173 92.687 159.909 91.0024C159.646 89.3179 159.514 87.355 159.514 85.1138C159.514 82.8726 159.667 80.917 159.975 79.2471C160.297 77.5771 160.708 76.1489 161.206 74.9624C161.718 73.7612 162.29 72.7798 162.919 72.0181C163.564 71.2417 164.216 70.6338 164.875 70.1943C165.534 69.7402 166.171 69.4326 166.787 69.2715C167.417 69.0957 167.958 69.0078 168.413 69.0078C168.837 69.0225 169.255 69.0664 169.665 69.1396C170.017 69.2129 170.383 69.3228 170.764 69.4692C171.159 69.6157 171.503 69.8208 171.796 70.0845L171.357 74.501C170.947 74.2959 170.559 74.1494 170.192 74.0615C169.841 73.959 169.504 73.9077 169.182 73.9077C168.566 73.9077 168.017 74.0762 167.534 74.4131C167.065 74.7354 166.655 75.1675 166.303 75.7095C165.966 76.2515 165.673 76.8667 165.424 77.5552C165.19 78.2437 165 78.9468 164.853 79.6646C164.487 81.3491 164.282 83.2681 164.238 85.4214C164.282 87.2817 164.45 88.9883 164.743 90.541C164.875 91.2002 165.036 91.8594 165.227 92.5186C165.432 93.1777 165.673 93.793 165.952 94.3643C166.245 94.9209 166.582 95.4043 166.962 95.8145C167.358 96.2246 167.812 96.5103 168.325 96.6714C168.295 94.7671 168.2 92.8774 168.039 91.0024C167.893 89.1274 167.673 87.2378 167.38 85.3335L172.609 85.2456ZM183.771 89.2446C183.317 89.2153 182.856 89.1934 182.387 89.1787C181.918 89.1641 181.45 89.1567 180.981 89.1567C180.717 89.1567 180.439 89.1641 180.146 89.1787C179.868 89.1934 179.589 89.2007 179.311 89.2007L179.223 97.0449C180.424 97.0156 181.589 96.957 182.717 96.8691C183.859 96.7812 185.068 96.6421 186.342 96.4517V101.044C185.522 101.015 184.724 100.993 183.947 100.978C183.186 100.963 182.424 100.956 181.662 100.956C180.52 100.956 179.392 100.971 178.278 101C177.165 101.044 176.015 101.103 174.829 101.176C174.96 98.4512 175.063 95.7559 175.136 93.0898C175.224 90.4092 175.268 87.7065 175.268 84.9819C175.268 82.3745 175.231 79.7891 175.158 77.2256C175.1 74.6475 174.99 72.0547 174.829 69.4473C176.557 69.5791 178.205 69.645 179.772 69.645C180.769 69.645 181.757 69.623 182.739 69.5791C183.735 69.5205 184.797 69.4473 185.925 69.3594V74.4131C185.017 74.252 184.116 74.1274 183.222 74.0396C182.343 73.9517 181.464 73.9077 180.585 73.9077H179.729C179.582 75.7388 179.479 77.5625 179.421 79.3789C179.377 81.1953 179.34 83.019 179.311 84.8501C179.692 84.8794 180.073 84.894 180.454 84.894C180.849 84.894 181.252 84.894 181.662 84.894C181.999 84.894 182.343 84.894 182.695 84.894C183.046 84.894 183.405 84.8794 183.771 84.8501V89.2446ZM199.46 93.2217C199.46 94.3789 199.335 95.397 199.086 96.2759C198.852 97.1401 198.537 97.8872 198.142 98.5171C197.761 99.1323 197.329 99.645 196.845 100.055C196.362 100.451 195.864 100.766 195.351 101C194.853 101.234 194.37 101.396 193.901 101.483C193.447 101.586 193.051 101.637 192.714 101.637C192.539 101.637 192.297 101.623 191.989 101.593C191.682 101.579 191.33 101.535 190.935 101.461C190.539 101.388 190.1 101.278 189.616 101.132C189.147 101 188.649 100.81 188.122 100.561L188.364 95.0234C189.228 95.7559 189.997 96.2466 190.671 96.4956C191.359 96.7446 191.938 96.8691 192.407 96.8691C193.315 96.8691 193.996 96.5396 194.45 95.8804C194.919 95.2212 195.153 94.3643 195.153 93.3096C195.153 92.6064 194.978 91.8228 194.626 90.9585C194.289 90.0796 193.681 89.1348 192.802 88.124C192.202 87.4209 191.579 86.6885 190.935 85.9268C190.29 85.165 189.704 84.3521 189.177 83.4878C188.649 82.6235 188.217 81.6934 187.88 80.6973C187.543 79.7012 187.375 78.6245 187.375 77.4673C187.375 76.0024 187.573 74.7354 187.968 73.666C188.378 72.5967 188.92 71.7104 189.594 71.0073C190.268 70.3042 191.037 69.7842 191.901 69.4473C192.78 69.0957 193.696 68.9199 194.648 68.9199C195.483 68.9199 196.333 69.0371 197.197 69.2715C198.076 69.4912 198.955 69.8354 199.833 70.3042L199.416 75.8413C199.035 75.3579 198.632 74.9771 198.208 74.6987C197.797 74.4058 197.395 74.186 196.999 74.0396C196.618 73.8931 196.259 73.7979 195.922 73.7539C195.6 73.71 195.329 73.688 195.109 73.688C194.685 73.688 194.289 73.7979 193.923 74.0176C193.571 74.2227 193.264 74.5083 193 74.8745C192.751 75.2261 192.553 75.6509 192.407 76.1489C192.26 76.6323 192.187 77.145 192.187 77.687C192.187 78.522 192.363 79.2764 192.714 79.9502C193.081 80.624 193.535 81.2905 194.077 81.9497C194.619 82.6089 195.197 83.29 195.812 83.9932C196.442 84.6816 197.028 85.4653 197.57 86.3442C198.112 87.2085 198.559 88.2046 198.911 89.3325C199.277 90.4458 199.46 91.7422 199.46 93.2217ZM212.819 74.0396C212.351 74.0103 211.809 73.9883 211.193 73.9736C210.593 73.959 209.948 73.9517 209.26 73.9517C209.157 75.314 209.069 76.7275 208.996 78.1924C208.938 79.6426 208.886 81.1221 208.842 82.6309C208.798 84.125 208.769 85.6338 208.754 87.1572C208.74 88.666 208.732 90.1602 208.732 91.6396C208.732 93.3242 208.74 94.9575 208.754 96.5396C208.784 98.1069 208.835 99.623 208.908 101.088H204.228C204.36 98.5977 204.462 95.9463 204.536 93.1338C204.609 90.3213 204.646 87.4868 204.646 84.6304C204.646 82.77 204.624 80.9536 204.58 79.1812C204.536 77.4087 204.492 75.6802 204.448 73.9956C203.745 73.9956 203.078 74.0029 202.448 74.0176C201.818 74.0322 201.254 74.0542 200.756 74.0835L200.8 69.4912C201.328 69.5352 201.921 69.5718 202.58 69.6011C203.239 69.6157 203.928 69.6304 204.646 69.645C205.378 69.6597 206.125 69.6743 206.887 69.689C207.648 69.689 208.396 69.689 209.128 69.689C209.86 69.689 210.549 69.689 211.193 69.689C211.853 69.689 212.438 69.6743 212.951 69.645L212.819 74.0396ZM229.255 85.6191C229.255 88.5635 229.05 91.061 228.64 93.1118C228.244 95.1626 227.702 96.8325 227.014 98.1216C226.325 99.396 225.512 100.326 224.575 100.912C223.637 101.483 222.634 101.769 221.564 101.769C220.495 101.769 219.492 101.498 218.554 100.956C217.617 100.399 216.796 99.4912 216.093 98.2314C215.39 96.9717 214.833 95.3091 214.423 93.2437C214.028 91.1782 213.83 88.6367 213.83 85.6191C213.83 82.5869 214.028 80.0161 214.423 77.9067C214.833 75.7827 215.39 74.0615 216.093 72.7432C216.796 71.4102 217.617 70.4507 218.554 69.8647C219.492 69.2642 220.495 68.9639 221.564 68.9639C222.634 68.9639 223.637 69.2568 224.575 69.8428C225.512 70.4141 226.325 71.3589 227.014 72.6772C227.702 73.9956 228.244 75.7168 228.64 77.8408C229.05 79.9502 229.255 82.543 229.255 85.6191ZM224.355 85.6191C224.355 83.3193 224.282 81.3784 224.135 79.7964C223.989 78.2144 223.784 76.9326 223.52 75.9512C223.271 74.9551 222.978 74.2373 222.641 73.7979C222.304 73.3584 221.945 73.1387 221.564 73.1387C221.169 73.1387 220.795 73.3657 220.444 73.8198C220.107 74.2593 219.807 74.9771 219.543 75.9731C219.294 76.9546 219.096 78.2437 218.95 79.8403C218.803 81.4224 218.73 83.3486 218.73 85.6191C218.73 87.875 218.803 89.772 218.95 91.3101C219.096 92.8335 219.294 94.064 219.543 95.0015C219.807 95.9243 220.107 96.5835 220.444 96.979C220.795 97.3745 221.169 97.5723 221.564 97.5723C221.945 97.5723 222.304 97.3672 222.641 96.957C222.978 96.5322 223.271 95.8511 223.52 94.9136C223.784 93.9614 223.989 92.7236 224.135 91.2002C224.282 89.6768 224.355 87.8164 224.355 85.6191ZM228.002 64.5474C227.68 65.2065 227.307 65.7925 226.882 66.3052C226.516 66.7446 226.062 67.1475 225.52 67.5137C224.992 67.8799 224.392 68.063 223.718 68.063C223.278 68.0483 222.883 67.9312 222.531 67.7114C222.194 67.4917 221.865 67.25 221.542 66.9863C221.235 66.7227 220.913 66.4883 220.576 66.2832C220.253 66.0635 219.895 65.9536 219.499 65.9536C218.986 65.9536 218.576 66.1367 218.269 66.5029C217.961 66.8545 217.617 67.3745 217.236 68.063L215.039 65.8877C215.273 65.3604 215.507 64.877 215.742 64.4375C215.976 63.998 216.24 63.6245 216.533 63.3169C216.84 62.9946 217.185 62.7456 217.565 62.5698C217.961 62.394 218.437 62.3062 218.994 62.3062C219.594 62.3062 220.107 62.4087 220.532 62.6138C220.957 62.8042 221.337 63.0166 221.674 63.251C222.011 63.4854 222.319 63.7051 222.597 63.9102C222.89 64.1006 223.19 64.1958 223.498 64.1958C223.908 64.1958 224.267 64.0786 224.575 63.8442C224.897 63.5952 225.175 63.3242 225.41 63.0312C225.673 62.6797 225.908 62.2842 226.113 61.8447L228.002 64.5474ZM240.549 89.2446C240.095 89.2153 239.633 89.1934 239.165 89.1787C238.696 89.1641 238.227 89.1567 237.758 89.1567C237.495 89.1567 237.216 89.1641 236.923 89.1787C236.645 89.1934 236.367 89.2007 236.088 89.2007L236 97.0449C237.202 97.0156 238.366 96.957 239.494 96.8691C240.637 96.7812 241.845 96.6421 243.12 96.4517V101.044C242.299 101.015 241.501 100.993 240.725 100.978C239.963 100.963 239.201 100.956 238.439 100.956C237.297 100.956 236.169 100.971 235.056 101C233.942 101.044 232.792 101.103 231.606 101.176C231.738 98.4512 231.84 95.7559 231.914 93.0898C232.001 90.4092 232.045 87.7065 232.045 84.9819C232.045 82.3745 232.009 79.7891 231.936 77.2256C231.877 74.6475 231.767 72.0547 231.606 69.4473C233.334 69.5791 234.982 69.645 236.55 69.645C237.546 69.645 238.535 69.623 239.516 69.5791C240.512 69.5205 241.574 69.4473 242.702 69.3594V74.4131C241.794 74.252 240.893 74.1274 240 74.0396C239.121 73.9517 238.242 73.9077 237.363 73.9077H236.506C236.359 75.7388 236.257 77.5625 236.198 79.3789C236.154 81.1953 236.118 83.019 236.088 84.8501C236.469 84.8794 236.85 84.894 237.231 84.894C237.626 84.894 238.029 84.894 238.439 84.894C238.776 84.894 239.121 84.894 239.472 84.894C239.824 84.894 240.183 84.8794 240.549 84.8501V89.2446ZM256.237 93.2217C256.237 94.3789 256.113 95.397 255.864 96.2759C255.629 97.1401 255.314 97.8872 254.919 98.5171C254.538 99.1323 254.106 99.645 253.623 100.055C253.139 100.451 252.641 100.766 252.128 101C251.63 101.234 251.147 101.396 250.678 101.483C250.224 101.586 249.829 101.637 249.492 101.637C249.316 101.637 249.074 101.623 248.767 101.593C248.459 101.579 248.107 101.535 247.712 101.461C247.316 101.388 246.877 101.278 246.394 101.132C245.925 101 245.427 100.81 244.899 100.561L245.141 95.0234C246.005 95.7559 246.774 96.2466 247.448 96.4956C248.137 96.7446 248.715 96.8691 249.184 96.8691C250.092 96.8691 250.773 96.5396 251.228 95.8804C251.696 95.2212 251.931 94.3643 251.931 93.3096C251.931 92.6064 251.755 91.8228 251.403 90.9585C251.066 90.0796 250.458 89.1348 249.58 88.124C248.979 87.4209 248.356 86.6885 247.712 85.9268C247.067 85.165 246.481 84.3521 245.954 83.4878C245.427 82.6235 244.995 81.6934 244.658 80.6973C244.321 79.7012 244.152 78.6245 244.152 77.4673C244.152 76.0024 244.35 74.7354 244.746 73.666C245.156 72.5967 245.698 71.7104 246.372 71.0073C247.045 70.3042 247.814 69.7842 248.679 69.4473C249.558 69.0957 250.473 68.9199 251.425 68.9199C252.26 68.9199 253.11 69.0371 253.974 69.2715C254.853 69.4912 255.732 69.8354 256.611 70.3042L256.193 75.8413C255.812 75.3579 255.41 74.9771 254.985 74.6987C254.575 74.4058 254.172 74.186 253.776 74.0396C253.396 73.8931 253.037 73.7979 252.7 73.7539C252.377 73.71 252.106 73.688 251.887 73.688C251.462 73.688 251.066 73.7979 250.7 74.0176C250.349 74.2227 250.041 74.5083 249.777 74.8745C249.528 75.2261 249.331 75.6509 249.184 76.1489C249.038 76.6323 248.964 77.145 248.964 77.687C248.964 78.522 249.14 79.2764 249.492 79.9502C249.858 80.624 250.312 81.2905 250.854 81.9497C251.396 82.6089 251.975 83.29 252.59 83.9932C253.22 84.6816 253.806 85.4653 254.348 86.3442C254.89 87.2085 255.336 88.2046 255.688 89.3325C256.054 90.4458 256.237 91.7422 256.237 93.2217Z" fill="white"/>
</svg>
