<svg width="47" height="56" viewBox="0 0 47 56" fill="none" xmlns="http://www.w3.org/2000/svg">
<rect x="1.5" y="10.5" width="44" height="44" rx="8.5" fill="#FF0000" stroke="black" stroke-width="3"/>
<path d="M26.0312 45.1875C25.6406 44.0312 25.2422 42.9062 24.8359 41.8125C24.4453 40.7031 24.0312 39.5859 23.5938 38.4609C23.1875 39.5547 22.7891 40.6562 22.3984 41.7656C22.0078 42.8594 21.6328 43.9688 21.2734 45.0938L16 44.8125C16.9375 42.8125 17.8438 40.8359 18.7188 38.8828C19.6094 36.9297 20.4609 34.9375 21.2734 32.9062C20.4297 30.9062 19.5703 28.9375 18.6953 27C17.8359 25.0469 16.9688 23.0781 16.0938 21.0938L21.5781 20.5312C22.1406 22.6719 22.8125 24.7656 23.5938 26.8125C23.9219 25.7969 24.2578 24.7734 24.6016 23.7422C24.9609 22.7109 25.2969 21.6406 25.6094 20.5312L31.0234 20.9531C30.0859 22.9375 29.1953 24.8984 28.3516 26.8359C27.5078 28.7734 26.6719 30.7344 25.8438 32.7188C26.6406 34.7031 27.4453 36.6406 28.2578 38.5312C29.0859 40.4219 29.9141 42.3359 30.7422 44.2734L26.0312 45.1875Z" fill="white"/>
<path d="M26.0312 45.1875L24.1365 45.8276L24.696 47.4839L26.4122 47.1509L26.0312 45.1875ZM24.8359 41.8125L22.9495 42.4767L22.9551 42.4929L22.9611 42.5089L24.8359 41.8125ZM23.5938 38.4609L25.4578 37.736L23.5508 32.8325L21.7189 37.7646L23.5938 38.4609ZM22.3984 41.7656L24.2819 42.4383L24.2849 42.4299L22.3984 41.7656ZM21.2734 45.0938L21.1669 47.0909L22.7088 47.1731L23.1786 45.7023L21.2734 45.0938ZM16 44.8125L14.1891 43.9636L12.9291 46.6516L15.8935 46.8097L16 44.8125ZM18.7188 38.8828L16.899 38.053L16.8935 38.0651L18.7188 38.8828ZM21.2734 32.9062L23.1304 33.649L23.4356 32.886L23.1162 32.1288L21.2734 32.9062ZM18.6953 27L16.8647 27.8055L16.8686 27.8143L16.8726 27.8232L18.6953 27ZM16.0938 21.0938L15.8897 19.1042L13.1544 19.3847L14.2638 21.9007L16.0938 21.0938ZM21.5781 20.5312L23.5125 20.023L23.0773 18.367L21.3741 18.5417L21.5781 20.5312ZM23.5938 26.8125L21.7252 27.5257L23.7507 32.8323L25.4969 27.4274L23.5938 26.8125ZM24.6016 23.7422L22.713 23.084L22.7085 23.0969L22.7042 23.1097L24.6016 23.7422ZM25.6094 20.5312L25.7647 18.5373L24.1291 18.4098L23.6843 19.989L25.6094 20.5312ZM31.0234 20.9531L32.8318 21.8075L34.071 19.1845L31.1788 18.9592L31.0234 20.9531ZM25.8438 32.7188L23.998 31.9485L23.6827 32.7042L23.9878 33.4641L25.8438 32.7188ZM28.2578 38.5312L26.4203 39.3209L26.4258 39.3337L28.2578 38.5312ZM30.7422 44.2734L31.1231 46.2368L33.5547 45.765L32.5812 43.4874L30.7422 44.2734ZM27.926 44.5474C27.5293 43.3731 27.1243 42.2294 26.7108 41.1161L22.9611 42.5089C23.3601 43.5831 23.7519 44.6894 24.1365 45.8276L27.926 44.5474ZM26.7224 41.1483C26.3244 40.018 25.9029 38.8806 25.4578 37.736L21.7297 39.1858C22.1596 40.2913 22.5662 41.3882 22.9495 42.4767L26.7224 41.1483ZM21.7189 37.7646C21.3087 38.8691 20.9063 39.9813 20.512 41.1014L24.2849 42.4299C24.6718 41.3312 25.0663 40.2403 25.4686 39.1573L21.7189 37.7646ZM20.515 41.093C20.1166 42.2083 19.7344 43.339 19.3683 44.4852L23.1786 45.7023C23.5312 44.5985 23.899 43.5105 24.2819 42.4383L20.515 41.093ZM21.38 43.0966L16.1065 42.8153L15.8935 46.8097L21.1669 47.0909L21.38 43.0966ZM17.8109 45.6614C18.7531 43.6513 19.6641 41.6644 20.544 39.7005L16.8935 38.0651C16.0234 40.0075 15.1219 41.9737 14.1891 43.9636L17.8109 45.6614ZM20.5385 39.7126C21.4424 37.7302 22.3064 35.709 23.1304 33.649L19.4165 32.1635C18.6155 34.166 17.7763 36.1291 16.899 38.053L20.5385 39.7126ZM23.1162 32.1288C22.2661 30.1138 21.4 28.1298 20.5181 26.1768L16.8726 27.8232C17.7406 29.7452 18.5933 31.6987 19.4307 33.6837L23.1162 32.1288ZM20.5259 26.1945C19.6664 24.2409 18.799 22.2717 17.9237 20.2868L14.2638 21.9007C15.1385 23.8846 16.0055 25.8528 16.8647 27.8055L20.5259 26.1945ZM16.2978 23.0833L21.7822 22.5208L21.3741 18.5417L15.8897 19.1042L16.2978 23.0833ZM19.6438 21.0395C20.2243 23.2489 20.9181 25.4111 21.7252 27.5257L25.4623 26.0993C24.7069 24.1202 24.0569 22.0949 23.5125 20.023L19.6438 21.0395ZM25.4969 27.4274C25.8231 26.4177 26.1571 25.4001 26.4989 24.3746L22.7042 23.1097C22.3585 24.1467 22.0207 25.176 21.6906 26.1976L25.4969 27.4274ZM26.4902 24.4003C26.8636 23.3288 27.2116 22.2198 27.5345 21.0735L23.6843 19.989C23.3822 21.0615 23.0583 22.0931 22.713 23.084L26.4902 24.4003ZM25.454 22.5252L30.8681 22.9471L31.1788 18.9592L25.7647 18.5373L25.454 22.5252ZM29.2151 20.0988C28.2692 22.1009 27.3701 24.0805 26.5179 26.0374L30.1852 27.6345C31.0205 25.7164 31.9027 23.7741 32.8318 21.8075L29.2151 20.0988ZM26.5179 26.0374C25.67 27.9845 24.83 29.9548 23.998 31.9485L27.6895 33.489C28.5137 31.5139 29.3456 29.5624 30.1852 27.6345L26.5179 26.0374ZM23.9878 33.4641C24.7904 35.4627 25.6012 37.415 26.4203 39.3209L30.0953 37.7416C29.2894 35.8662 28.4908 33.9435 27.6997 31.9734L23.9878 33.4641ZM26.4258 39.3337C27.2515 41.2187 28.0773 43.1273 28.9031 45.0595L32.5812 43.4874C31.7508 41.5445 30.9203 39.625 30.0898 37.7288L26.4258 39.3337ZM30.3612 42.3101L25.6503 43.2241L26.4122 47.1509L31.1231 46.2368L30.3612 42.3101Z" fill="black"/>
</svg>
